<?xml version="1.0" encoding="UTF-8"?>
<svg xmlns="http://www.w3.org/2000/svg" width="256" height="256" viewBox="0 0 256 256">
  <defs>
    <radialGradient id="ring-carbon-rich" cx="50%" cy="50%" r="50%">
      <stop offset="0%" stop-color="#39373a" stop-opacity="0"/>
      <stop offset="65%" stop-color="#666268" stop-opacity="0.35"/>
      <stop offset="100%" stop-color="#98919a" stop-opacity="0.72"/>
    </radialGradient>
    <mask id="inner-carbon-rich">
      <rect width="256" height="256" fill="white"/>
      <ellipse cx="128" cy="128" rx="69.89" ry="26.62" fill="black"/>
    </mask>
  </defs>
  <ellipse cx="128" cy="128" rx="107.52" ry="40.96" fill="url(#ring-carbon-rich)" mask="url(#inner-carbon-rich)"/>
  <circle cx="88.14" cy="95.90" r="1.04" fill="#98919a" opacity="0.255"/><circle cx="196.75" cy="111.46" r="1.13" fill="#98919a" opacity="0.314"/><circle cx="67.45" cy="96.61" r="0.93" fill="#666268" opacity="0.451"/><circle cx="206.60" cy="124.23" r="1.33" fill="#98919a" opacity="0.539"/><circle cx="176.12" cy="100.83" r="1.10" fill="#98919a" opacity="0.540"/><circle cx="221.43" cy="112.66" r="1.55" fill="#98919a" opacity="0.617"/><circle cx="77.35" cy="153.93" r="0.71" fill="#98919a" opacity="0.812"/><circle cx="182.58" cy="157.72" r="1.82" fill="#666268" opacity="0.743"/><circle cx="205.15" cy="106.26" r="1.81" fill="#666268" opacity="0.598"/><circle cx="90.78" cy="161.42" r="1.48" fill="#98919a" opacity="0.825"/><circle cx="122.78" cy="94.04" r="0.88" fill="#666268" opacity="0.388"/><circle cx="127.57" cy="163.36" r="1.64" fill="#666268" opacity="0.717"/><circle cx="121.34" cy="164.84" r="1.60" fill="#666268" opacity="0.643"/><circle cx="82.43" cy="98.17" r="2.01" fill="#666268" opacity="0.267"/><circle cx="73.80" cy="104.41" r="1.04" fill="#98919a" opacity="0.809"/><circle cx="217.23" cy="127.50" r="1.78" fill="#666268" opacity="0.836"/><circle cx="68.35" cy="159.76" r="1.62" fill="#98919a" opacity="0.614"/><circle cx="49.18" cy="152.35" r="1.07" fill="#98919a" opacity="0.714"/><circle cx="66.83" cy="153.65" r="1.09" fill="#666268" opacity="0.827"/><circle cx="54.55" cy="153.67" r="0.67" fill="#666268" opacity="0.624"/><circle cx="114.97" cy="95.68" r="1.54" fill="#98919a" opacity="0.327"/><circle cx="36.21" cy="124.95" r="0.51" fill="#666268" opacity="0.601"/><circle cx="218.63" cy="115.74" r="1.60" fill="#98919a" opacity="0.536"/><circle cx="62.56" cy="157.36" r="1.51" fill="#98919a" opacity="0.386"/><circle cx="59.29" cy="142.89" r="1.01" fill="#98919a" opacity="0.371"/><circle cx="135.72" cy="164.73" r="0.86" fill="#98919a" opacity="0.650"/><circle cx="43.57" cy="142.04" r="1.30" fill="#98919a" opacity="0.734"/><circle cx="217.89" cy="108.83" r="0.74" fill="#666268" opacity="0.278"/><circle cx="105.46" cy="162.10" r="1.26" fill="#666268" opacity="0.841"/><circle cx="209.16" cy="136.62" r="1.33" fill="#98919a" opacity="0.509"/><circle cx="29.75" cy="115.57" r="0.57" fill="#666268" opacity="0.591"/><circle cx="193.91" cy="110.51" r="1.94" fill="#98919a" opacity="0.849"/><circle cx="62.98" cy="104.78" r="1.60" fill="#98919a" opacity="0.535"/><circle cx="61.97" cy="145.11" r="0.52" fill="#666268" opacity="0.439"/><circle cx="130.58" cy="93.23" r="1.24" fill="#98919a" opacity="0.538"/><circle cx="56.08" cy="151.58" r="1.88" fill="#98919a" opacity="0.803"/><circle cx="114.87" cy="166.18" r="0.50" fill="#98919a" opacity="0.604"/><circle cx="40.42" cy="139.26" r="1.90" fill="#98919a" opacity="0.566"/><circle cx="80.90" cy="156.56" r="1.38" fill="#98919a" opacity="0.624"/><circle cx="51.53" cy="134.26" r="1.92" fill="#666268" opacity="0.534"/><circle cx="203.58" cy="144.67" r="1.65" fill="#666268" opacity="0.585"/><circle cx="178.75" cy="150.48" r="0.98" fill="#666268" opacity="0.609"/><circle cx="103.46" cy="157.55" r="1.52" fill="#98919a" opacity="0.358"/><circle cx="111.43" cy="90.64" r="1.74" fill="#98919a" opacity="0.278"/><circle cx="53.19" cy="148.47" r="1.78" fill="#98919a" opacity="0.708"/><circle cx="162.64" cy="95.38" r="0.68" fill="#666268" opacity="0.734"/><circle cx="224.56" cy="122.26" r="1.14" fill="#666268" opacity="0.801"/><circle cx="155.66" cy="93.84" r="0.65" fill="#666268" opacity="0.522"/><circle cx="173.31" cy="104.06" r="1.61" fill="#98919a" opacity="0.506"/><circle cx="183.79" cy="159.41" r="0.74" fill="#666268" opacity="0.720"/><circle cx="134.49" cy="95.60" r="1.08" fill="#666268" opacity="0.803"/><circle cx="141.67" cy="88.79" r="1.19" fill="#666268" opacity="0.431"/><circle cx="141.14" cy="98.55" r="1.38" fill="#666268" opacity="0.710"/><circle cx="201.46" cy="113.91" r="1.88" fill="#98919a" opacity="0.796"/><circle cx="71.08" cy="150.51" r="1.04" fill="#666268" opacity="0.457"/><circle cx="84.33" cy="163.54" r="0.88" fill="#666268" opacity="0.425"/><circle cx="225.03" cy="123.77" r="0.68" fill="#98919a" opacity="0.577"/><circle cx="225.59" cy="131.52" r="1.88" fill="#666268" opacity="0.429"/><circle cx="47.67" cy="140.15" r="0.68" fill="#98919a" opacity="0.373"/><circle cx="174.55" cy="98.12" r="1.27" fill="#666268" opacity="0.764"/><circle cx="74.08" cy="106.16" r="1.78" fill="#666268" opacity="0.312"/><circle cx="93.33" cy="99.36" r="1.09" fill="#666268" opacity="0.533"/><circle cx="39.52" cy="133.75" r="0.60" fill="#98919a" opacity="0.532"/><circle cx="208.84" cy="121.96" r="1.91" fill="#98919a" opacity="0.783"/><circle cx="41.87" cy="129.47" r="1.75" fill="#666268" opacity="0.444"/><circle cx="229.63" cy="132.96" r="1.71" fill="#98919a" opacity="0.275"/><circle cx="45.93" cy="145.97" r="1.40" fill="#98919a" opacity="0.835"/><circle cx="96.61" cy="162.55" r="0.98" fill="#98919a" opacity="0.521"/><circle cx="192.88" cy="111.33" r="2.05" fill="#666268" opacity="0.324"/><circle cx="219.75" cy="130.18" r="1.47" fill="#98919a" opacity="0.835"/><circle cx="78.42" cy="154.27" r="1.11" fill="#98919a" opacity="0.797"/><circle cx="195.08" cy="145.97" r="1.47" fill="#666268" opacity="0.697"/><circle cx="203.11" cy="143.32" r="0.97" fill="#666268" opacity="0.481"/><circle cx="101.77" cy="95.33" r="0.60" fill="#98919a" opacity="0.416"/><circle cx="200.12" cy="141.03" r="1.09" fill="#98919a" opacity="0.800"/><circle cx="86.24" cy="159.44" r="0.79" fill="#98919a" opacity="0.685"/><circle cx="80.55" cy="101.01" r="1.64" fill="#666268" opacity="0.527"/><circle cx="46.83" cy="151.37" r="1.11" fill="#666268" opacity="0.351"/><circle cx="57.19" cy="106.82" r="0.80" fill="#98919a" opacity="0.270"/><circle cx="56.57" cy="140.06" r="1.64" fill="#666268" opacity="0.304"/><circle cx="86.62" cy="100.70" r="1.69" fill="#98919a" opacity="0.637"/><circle cx="179.54" cy="105.11" r="1.86" fill="#98919a" opacity="0.296"/><circle cx="198.79" cy="103.77" r="1.85" fill="#98919a" opacity="0.275"/><circle cx="40.27" cy="115.38" r="0.67" fill="#666268" opacity="0.626"/><circle cx="130.71" cy="164.25" r="1.40" fill="#98919a" opacity="0.403"/><circle cx="220.48" cy="117.20" r="1.46" fill="#666268" opacity="0.275"/><circle cx="198.00" cy="148.56" r="0.96" fill="#98919a" opacity="0.816"/><circle cx="197.23" cy="149.57" r="1.37" fill="#98919a" opacity="0.281"/><circle cx="144.40" cy="95.99" r="1.82" fill="#666268" opacity="0.371"/><circle cx="175.41" cy="162.37" r="2.09" fill="#666268" opacity="0.448"/><circle cx="56.47" cy="114.66" r="1.14" fill="#98919a" opacity="0.611"/><circle cx="210.86" cy="122.67" r="0.63" fill="#666268" opacity="0.773"/><circle cx="63.05" cy="155.31" r="1.96" fill="#98919a" opacity="0.375"/><circle cx="211.76" cy="137.68" r="1.30" fill="#666268" opacity="0.473"/><circle cx="217.44" cy="126.95" r="2.09" fill="#666268" opacity="0.736"/><circle cx="125.85" cy="89.78" r="1.00" fill="#666268" opacity="0.793"/><circle cx="103.87" cy="91.35" r="0.77" fill="#98919a" opacity="0.278"/><circle cx="73.85" cy="158.83" r="0.95" fill="#98919a" opacity="0.441"/><circle cx="37.03" cy="122.21" r="1.80" fill="#98919a" opacity="0.433"/><circle cx="116.46" cy="97.71" r="2.06" fill="#666268" opacity="0.531"/><circle cx="193.51" cy="102.77" r="0.98" fill="#98919a" opacity="0.518"/><circle cx="28.95" cy="126.39" r="0.51" fill="#98919a" opacity="0.742"/><circle cx="209.78" cy="140.88" r="1.37" fill="#98919a" opacity="0.541"/><circle cx="61.14" cy="106.99" r="1.33" fill="#98919a" opacity="0.481"/><circle cx="32.05" cy="127.54" r="0.63" fill="#666268" opacity="0.594"/><circle cx="180.43" cy="101.47" r="1.27" fill="#666268" opacity="0.758"/><circle cx="43.36" cy="115.49" r="1.01" fill="#98919a" opacity="0.762"/><circle cx="197.76" cy="144.43" r="0.53" fill="#98919a" opacity="0.436"/><circle cx="53.19" cy="143.36" r="2.10" fill="#666268" opacity="0.364"/><circle cx="65.90" cy="151.25" r="0.73" fill="#666268" opacity="0.614"/><circle cx="67.36" cy="148.65" r="1.04" fill="#98919a" opacity="0.519"/><circle cx="164.44" cy="96.69" r="2.04" fill="#666268" opacity="0.277"/><circle cx="128.92" cy="97.72" r="1.30" fill="#98919a" opacity="0.802"/><circle cx="136.63" cy="161.65" r="1.40" fill="#666268" opacity="0.816"/><circle cx="215.69" cy="122.24" r="1.26" fill="#666268" opacity="0.721"/><circle cx="40.53" cy="142.38" r="1.77" fill="#666268" opacity="0.739"/><circle cx="211.06" cy="110.85" r="1.98" fill="#98919a" opacity="0.395"/><circle cx="135.35" cy="167.38" r="1.25" fill="#666268" opacity="0.687"/><circle cx="102.62" cy="157.36" r="0.52" fill="#666268" opacity="0.284"/><circle cx="53.53" cy="103.37" r="0.88" fill="#666268" opacity="0.668"/><circle cx="142.29" cy="159.18" r="1.04" fill="#98919a" opacity="0.310"/><circle cx="211.63" cy="114.31" r="1.96" fill="#666268" opacity="0.323"/><circle cx="220.16" cy="113.32" r="1.95" fill="#666268" opacity="0.632"/><circle cx="90.10" cy="163.00" r="1.75" fill="#98919a" opacity="0.643"/><circle cx="163.98" cy="93.28" r="1.86" fill="#666268" opacity="0.421"/><circle cx="205.76" cy="149.74" r="1.49" fill="#98919a" opacity="0.705"/><circle cx="102.45" cy="97.91" r="0.92" fill="#98919a" opacity="0.317"/><circle cx="110.05" cy="96.09" r="1.88" fill="#666268" opacity="0.791"/><circle cx="118.75" cy="167.01" r="0.65" fill="#666268" opacity="0.828"/><circle cx="115.75" cy="93.16" r="1.55" fill="#666268" opacity="0.367"/><circle cx="164.64" cy="155.61" r="1.77" fill="#98919a" opacity="0.495"/><circle cx="43.75" cy="117.94" r="1.38" fill="#666268" opacity="0.558"/><circle cx="183.42" cy="150.38" r="2.04" fill="#98919a" opacity="0.849"/><circle cx="177.43" cy="98.63" r="1.94" fill="#666268" opacity="0.367"/><circle cx="64.31" cy="107.21" r="1.38" fill="#666268" opacity="0.687"/><circle cx="102.58" cy="93.33" r="2.00" fill="#666268" opacity="0.565"/><circle cx="222.22" cy="140.22" r="1.80" fill="#666268" opacity="0.827"/><circle cx="95.98" cy="94.89" r="0.54" fill="#98919a" opacity="0.653"/><circle cx="223.54" cy="121.10" r="0.82" fill="#666268" opacity="0.461"/><circle cx="53.61" cy="139.52" r="1.14" fill="#98919a" opacity="0.813"/>
</svg>