<?xml version="1.0" encoding="UTF-8"?>
<svg xmlns="http://www.w3.org/2000/svg" width="256" height="256" viewBox="0 0 256 256">
  <defs>
    <radialGradient id="ring-extended-halo" cx="50%" cy="50%" r="50%">
      <stop offset="0%" stop-color="#4a5a6f" stop-opacity="0"/>
      <stop offset="65%" stop-color="#8098b5" stop-opacity="0.35"/>
      <stop offset="100%" stop-color="#b8c9de" stop-opacity="0.72"/>
    </radialGradient>
    <mask id="inner-extended-halo">
      <rect width="256" height="256" fill="white"/>
      <ellipse cx="128" cy="128" rx="69.89" ry="26.62" fill="black"/>
    </mask>
  </defs>
  <ellipse cx="128" cy="128" rx="107.52" ry="40.96" fill="url(#ring-extended-halo)" mask="url(#inner-extended-halo)"/>
  <circle cx="64.80" cy="106.40" r="1.80" fill="#8098b5" opacity="0.515"/><circle cx="87.81" cy="154.01" r="2.04" fill="#8098b5" opacity="0.324"/><circle cx="65.15" cy="147.59" r="1.36" fill="#b8c9de" opacity="0.530"/><circle cx="56.81" cy="114.02" r="0.89" fill="#b8c9de" opacity="0.749"/><circle cx="43.16" cy="135.23" r="1.05" fill="#8098b5" opacity="0.557"/><circle cx="176.57" cy="159.48" r="1.18" fill="#8098b5" opacity="0.569"/><circle cx="202.56" cy="148.34" r="1.69" fill="#b8c9de" opacity="0.562"/><circle cx="212.52" cy="149.79" r="1.34" fill="#8098b5" opacity="0.498"/><circle cx="110.13" cy="95.66" r="2.00" fill="#8098b5" opacity="0.758"/><circle cx="34.50" cy="143.84" r="1.94" fill="#b8c9de" opacity="0.300"/><circle cx="191.20" cy="102.49" r="1.70" fill="#8098b5" opacity="0.616"/><circle cx="38.24" cy="132.81" r="1.22" fill="#8098b5" opacity="0.794"/><circle cx="206.56" cy="124.10" r="0.72" fill="#b8c9de" opacity="0.297"/><circle cx="221.76" cy="136.09" r="0.76" fill="#8098b5" opacity="0.522"/><circle cx="219.24" cy="113.24" r="1.08" fill="#b8c9de" opacity="0.399"/><circle cx="98.29" cy="97.09" r="1.74" fill="#b8c9de" opacity="0.546"/><circle cx="55.88" cy="150.70" r="1.99" fill="#8098b5" opacity="0.714"/><circle cx="76.72" cy="93.57" r="0.67" fill="#b8c9de" opacity="0.664"/><circle cx="63.42" cy="152.03" r="1.49" fill="#b8c9de" opacity="0.256"/><circle cx="224.90" cy="131.43" r="1.65" fill="#8098b5" opacity="0.419"/><circle cx="149.04" cy="157.01" r="1.63" fill="#b8c9de" opacity="0.669"/><circle cx="113.12" cy="96.69" r="1.71" fill="#b8c9de" opacity="0.821"/><circle cx="223.05" cy="131.23" r="0.81" fill="#b8c9de" opacity="0.460"/><circle cx="200.24" cy="114.06" r="1.32" fill="#8098b5" opacity="0.286"/><circle cx="60.54" cy="152.54" r="0.65" fill="#8098b5" opacity="0.320"/><circle cx="35.54" cy="139.01" r="1.51" fill="#8098b5" opacity="0.728"/><circle cx="162.71" cy="100.16" r="1.64" fill="#b8c9de" opacity="0.632"/><circle cx="49.62" cy="138.21" r="1.76" fill="#b8c9de" opacity="0.744"/><circle cx="211.04" cy="125.17" r="0.78" fill="#8098b5" opacity="0.443"/><circle cx="127.44" cy="166.76" r="1.19" fill="#b8c9de" opacity="0.300"/><circle cx="186.87" cy="103.10" r="1.67" fill="#b8c9de" opacity="0.658"/><circle cx="87.13" cy="161.47" r="1.02" fill="#8098b5" opacity="0.739"/><circle cx="99.68" cy="96.50" r="1.83" fill="#8098b5" opacity="0.684"/><circle cx="199.90" cy="148.03" r="0.98" fill="#8098b5" opacity="0.742"/><circle cx="219.00" cy="144.24" r="0.76" fill="#b8c9de" opacity="0.409"/><circle cx="122.62" cy="96.38" r="0.64" fill="#b8c9de" opacity="0.263"/><circle cx="72.76" cy="105.87" r="0.96" fill="#8098b5" opacity="0.370"/><circle cx="41.05" cy="120.85" r="0.55" fill="#b8c9de" opacity="0.572"/><circle cx="122.63" cy="162.44" r="1.11" fill="#b8c9de" opacity="0.517"/><circle cx="60.72" cy="100.73" r="1.26" fill="#b8c9de" opacity="0.438"/><circle cx="131.13" cy="162.04" r="0.51" fill="#8098b5" opacity="0.575"/><circle cx="93.44" cy="98.03" r="2.05" fill="#b8c9de" opacity="0.254"/><circle cx="90.69" cy="154.95" r="1.06" fill="#b8c9de" opacity="0.633"/><circle cx="52.80" cy="103.06" r="1.01" fill="#b8c9de" opacity="0.675"/><circle cx="158.40" cy="159.33" r="1.50" fill="#8098b5" opacity="0.360"/><circle cx="128.85" cy="158.24" r="1.42" fill="#b8c9de" opacity="0.498"/><circle cx="41.25" cy="133.52" r="1.09" fill="#8098b5" opacity="0.706"/><circle cx="171.55" cy="159.31" r="2.07" fill="#b8c9de" opacity="0.518"/><circle cx="141.62" cy="159.93" r="1.34" fill="#b8c9de" opacity="0.594"/><circle cx="32.94" cy="141.34" r="1.80" fill="#8098b5" opacity="0.400"/><circle cx="164.62" cy="98.53" r="1.23" fill="#8098b5" opacity="0.809"/><circle cx="86.87" cy="98.71" r="1.43" fill="#b8c9de" opacity="0.746"/><circle cx="33.19" cy="113.63" r="0.73" fill="#b8c9de" opacity="0.752"/><circle cx="107.10" cy="161.64" r="1.85" fill="#b8c9de" opacity="0.602"/><circle cx="195.45" cy="109.77" r="1.10" fill="#8098b5" opacity="0.565"/><circle cx="142.09" cy="159.95" r="0.96" fill="#b8c9de" opacity="0.258"/><circle cx="62.47" cy="149.90" r="0.98" fill="#8098b5" opacity="0.634"/><circle cx="140.21" cy="91.60" r="1.65" fill="#b8c9de" opacity="0.535"/><circle cx="153.13" cy="100.01" r="1.73" fill="#b8c9de" opacity="0.575"/><circle cx="40.72" cy="111.17" r="0.61" fill="#8098b5" opacity="0.413"/><circle cx="88.45" cy="157.33" r="2.10" fill="#b8c9de" opacity="0.464"/><circle cx="139.01" cy="89.80" r="0.54" fill="#8098b5" opacity="0.620"/><circle cx="214.55" cy="118.52" r="0.56" fill="#8098b5" opacity="0.623"/><circle cx="27.21" cy="131.84" r="1.30" fill="#b8c9de" opacity="0.446"/><circle cx="219.54" cy="143.79" r="1.30" fill="#b8c9de" opacity="0.830"/><circle cx="124.94" cy="94.59" r="1.61" fill="#8098b5" opacity="0.603"/><circle cx="196.00" cy="99.53" r="1.82" fill="#8098b5" opacity="0.355"/><circle cx="104.89" cy="164.18" r="1.05" fill="#b8c9de" opacity="0.726"/><circle cx="44.42" cy="126.54" r="1.65" fill="#b8c9de" opacity="0.436"/><circle cx="59.43" cy="108.02" r="1.16" fill="#8098b5" opacity="0.387"/><circle cx="109.68" cy="157.90" r="0.92" fill="#b8c9de" opacity="0.495"/><circle cx="65.00" cy="109.35" r="0.77" fill="#8098b5" opacity="0.792"/><circle cx="218.52" cy="142.90" r="0.67" fill="#8098b5" opacity="0.595"/><circle cx="133.48" cy="167.39" r="1.09" fill="#8098b5" opacity="0.844"/><circle cx="38.49" cy="110.05" r="1.12" fill="#8098b5" opacity="0.409"/><circle cx="50.65" cy="152.80" r="0.71" fill="#b8c9de" opacity="0.822"/><circle cx="220.58" cy="142.52" r="1.58" fill="#8098b5" opacity="0.363"/><circle cx="67.81" cy="99.32" r="0.85" fill="#b8c9de" opacity="0.462"/><circle cx="91.43" cy="157.62" r="1.01" fill="#8098b5" opacity="0.574"/><circle cx="143.89" cy="89.67" r="1.54" fill="#8098b5" opacity="0.371"/><circle cx="98.64" cy="163.98" r="1.77" fill="#b8c9de" opacity="0.538"/><circle cx="51.66" cy="107.76" r="1.41" fill="#8098b5" opacity="0.631"/><circle cx="54.51" cy="148.35" r="0.78" fill="#8098b5" opacity="0.662"/><circle cx="51.30" cy="141.03" r="1.67" fill="#8098b5" opacity="0.342"/><circle cx="146.84" cy="160.74" r="1.89" fill="#8098b5" opacity="0.707"/><circle cx="68.96" cy="155.66" r="1.08" fill="#8098b5" opacity="0.690"/><circle cx="201.76" cy="148.37" r="1.71" fill="#8098b5" opacity="0.303"/><circle cx="71.87" cy="150.75" r="0.53" fill="#8098b5" opacity="0.512"/><circle cx="99.33" cy="160.66" r="0.71" fill="#b8c9de" opacity="0.681"/><circle cx="171.79" cy="99.25" r="1.94" fill="#8098b5" opacity="0.661"/><circle cx="229.37" cy="119.03" r="1.26" fill="#b8c9de" opacity="0.725"/><circle cx="65.18" cy="147.77" r="2.03" fill="#b8c9de" opacity="0.687"/><circle cx="47.40" cy="104.28" r="0.54" fill="#b8c9de" opacity="0.403"/><circle cx="201.29" cy="152.83" r="1.17" fill="#8098b5" opacity="0.300"/><circle cx="43.16" cy="139.13" r="0.76" fill="#b8c9de" opacity="0.843"/><circle cx="80.08" cy="95.77" r="1.37" fill="#b8c9de" opacity="0.513"/><circle cx="44.33" cy="123.57" r="0.58" fill="#8098b5" opacity="0.353"/><circle cx="32.49" cy="138.43" r="1.25" fill="#8098b5" opacity="0.664"/><circle cx="56.65" cy="102.69" r="1.36" fill="#b8c9de" opacity="0.701"/><circle cx="189.31" cy="153.94" r="1.52" fill="#b8c9de" opacity="0.301"/><circle cx="138.29" cy="164.05" r="2.06" fill="#8098b5" opacity="0.452"/><circle cx="226.60" cy="125.31" r="1.37" fill="#8098b5" opacity="0.745"/><circle cx="48.70" cy="141.94" r="1.62" fill="#8098b5" opacity="0.722"/><circle cx="60.37" cy="103.05" r="1.67" fill="#8098b5" opacity="0.605"/><circle cx="37.48" cy="144.11" r="1.64" fill="#b8c9de" opacity="0.378"/><circle cx="154.10" cy="96.55" r="1.46" fill="#b8c9de" opacity="0.463"/><circle cx="88.15" cy="161.11" r="1.70" fill="#8098b5" opacity="0.383"/><circle cx="209.64" cy="127.92" r="1.62" fill="#8098b5" opacity="0.807"/><circle cx="134.41" cy="158.69" r="1.18" fill="#b8c9de" opacity="0.800"/><circle cx="176.15" cy="152.57" r="1.33" fill="#b8c9de" opacity="0.474"/><circle cx="173.86" cy="152.63" r="1.25" fill="#8098b5" opacity="0.672"/><circle cx="97.81" cy="91.48" r="1.99" fill="#8098b5" opacity="0.748"/><circle cx="50.32" cy="138.65" r="1.43" fill="#8098b5" opacity="0.345"/><circle cx="206.05" cy="118.04" r="1.53" fill="#b8c9de" opacity="0.769"/><circle cx="158.89" cy="93.50" r="1.59" fill="#b8c9de" opacity="0.434"/><circle cx="47.19" cy="148.33" r="1.78" fill="#8098b5" opacity="0.565"/><circle cx="37.74" cy="134.50" r="2.03" fill="#8098b5" opacity="0.702"/><circle cx="158.07" cy="97.53" r="1.85" fill="#b8c9de" opacity="0.845"/><circle cx="171.30" cy="100.48" r="1.59" fill="#8098b5" opacity="0.261"/><circle cx="147.50" cy="97.15" r="1.28" fill="#b8c9de" opacity="0.661"/><circle cx="87.46" cy="100.81" r="1.94" fill="#8098b5" opacity="0.572"/><circle cx="146.88" cy="163.26" r="1.88" fill="#b8c9de" opacity="0.708"/><circle cx="192.95" cy="146.99" r="1.95" fill="#b8c9de" opacity="0.756"/><circle cx="34.99" cy="119.54" r="1.32" fill="#8098b5" opacity="0.279"/><circle cx="207.92" cy="102.77" r="1.08" fill="#b8c9de" opacity="0.779"/><circle cx="117.65" cy="91.42" r="1.88" fill="#8098b5" opacity="0.377"/><circle cx="130.84" cy="165.55" r="1.54" fill="#8098b5" opacity="0.700"/><circle cx="189.25" cy="156.57" r="1.31" fill="#8098b5" opacity="0.499"/><circle cx="41.92" cy="142.54" r="1.18" fill="#b8c9de" opacity="0.350"/><circle cx="162.95" cy="160.80" r="1.07" fill="#8098b5" opacity="0.490"/><circle cx="66.04" cy="155.33" r="1.51" fill="#b8c9de" opacity="0.252"/><circle cx="217.62" cy="146.52" r="0.68" fill="#8098b5" opacity="0.836"/><circle cx="136.20" cy="97.96" r="1.07" fill="#b8c9de" opacity="0.762"/><circle cx="91.88" cy="159.04" r="0.52" fill="#8098b5" opacity="0.734"/><circle cx="64.21" cy="146.19" r="1.42" fill="#8098b5" opacity="0.646"/><circle cx="35.85" cy="145.97" r="0.64" fill="#b8c9de" opacity="0.358"/><circle cx="90.34" cy="101.40" r="1.30" fill="#8098b5" opacity="0.284"/><circle cx="94.20" cy="158.15" r="0.56" fill="#b8c9de" opacity="0.820"/><circle cx="211.83" cy="118.20" r="0.79" fill="#b8c9de" opacity="0.366"/><circle cx="209.97" cy="135.04" r="1.88" fill="#b8c9de" opacity="0.586"/>
</svg>