<?xml version="1.0" encoding="UTF-8"?>
<svg xmlns="http://www.w3.org/2000/svg" width="256" height="256" viewBox="0 0 256 256">
  <defs>
    <radialGradient id="ring-icy-kuiper-like-belt" cx="50%" cy="50%" r="50%">
      <stop offset="0%" stop-color="#4f6075" stop-opacity="0"/>
      <stop offset="65%" stop-color="#88a2c1" stop-opacity="0.35"/>
      <stop offset="100%" stop-color="#cadcf2" stop-opacity="0.72"/>
    </radialGradient>
    <mask id="inner-icy-kuiper-like-belt">
      <rect width="256" height="256" fill="white"/>
      <ellipse cx="128" cy="128" rx="69.89" ry="26.62" fill="black"/>
    </mask>
  </defs>
  <ellipse cx="128" cy="128" rx="107.52" ry="40.96" fill="url(#ring-icy-kuiper-like-belt)" mask="url(#inner-icy-kuiper-like-belt)"/>
  <circle cx="42.06" cy="123.25" r="1.35" fill="#cadcf2" opacity="0.494"/><circle cx="197.83" cy="99.23" r="0.64" fill="#88a2c1" opacity="0.328"/><circle cx="95.04" cy="99.24" r="0.73" fill="#88a2c1" opacity="0.838"/><circle cx="39.71" cy="141.68" r="2.06" fill="#88a2c1" opacity="0.319"/><circle cx="191.63" cy="155.83" r="1.53" fill="#cadcf2" opacity="0.630"/><circle cx="38.17" cy="127.86" r="1.32" fill="#88a2c1" opacity="0.784"/><circle cx="70.49" cy="96.20" r="0.83" fill="#cadcf2" opacity="0.431"/><circle cx="140.26" cy="160.28" r="0.77" fill="#88a2c1" opacity="0.319"/><circle cx="54.16" cy="100.34" r="0.54" fill="#cadcf2" opacity="0.829"/><circle cx="39.52" cy="142.52" r="1.20" fill="#cadcf2" opacity="0.414"/><circle cx="207.25" cy="153.43" r="1.52" fill="#88a2c1" opacity="0.614"/><circle cx="153.42" cy="160.23" r="1.22" fill="#cadcf2" opacity="0.536"/><circle cx="37.68" cy="119.71" r="1.38" fill="#88a2c1" opacity="0.802"/><circle cx="82.54" cy="103.01" r="0.87" fill="#88a2c1" opacity="0.258"/><circle cx="45.70" cy="120.55" r="2.00" fill="#cadcf2" opacity="0.646"/><circle cx="202.37" cy="100.63" r="1.07" fill="#88a2c1" opacity="0.304"/><circle cx="30.94" cy="139.31" r="2.07" fill="#cadcf2" opacity="0.560"/><circle cx="76.56" cy="103.10" r="0.85" fill="#cadcf2" opacity="0.280"/><circle cx="98.66" cy="160.69" r="0.93" fill="#cadcf2" opacity="0.526"/><circle cx="105.28" cy="163.91" r="1.40" fill="#88a2c1" opacity="0.601"/><circle cx="159.43" cy="96.21" r="2.02" fill="#cadcf2" opacity="0.614"/><circle cx="91.35" cy="96.45" r="1.20" fill="#88a2c1" opacity="0.495"/><circle cx="27.47" cy="133.00" r="1.65" fill="#88a2c1" opacity="0.841"/><circle cx="51.67" cy="143.99" r="1.56" fill="#88a2c1" opacity="0.708"/><circle cx="77.38" cy="99.67" r="1.94" fill="#cadcf2" opacity="0.303"/><circle cx="189.60" cy="98.27" r="1.60" fill="#cadcf2" opacity="0.515"/><circle cx="212.93" cy="135.82" r="0.61" fill="#88a2c1" opacity="0.808"/><circle cx="88.65" cy="92.44" r="1.11" fill="#88a2c1" opacity="0.750"/><circle cx="53.78" cy="109.49" r="1.92" fill="#88a2c1" opacity="0.545"/><circle cx="37.25" cy="126.58" r="1.58" fill="#88a2c1" opacity="0.495"/><circle cx="164.84" cy="98.74" r="0.72" fill="#88a2c1" opacity="0.262"/><circle cx="147.88" cy="93.44" r="1.47" fill="#88a2c1" opacity="0.293"/><circle cx="55.34" cy="153.87" r="1.20" fill="#cadcf2" opacity="0.672"/><circle cx="209.91" cy="147.04" r="1.08" fill="#cadcf2" opacity="0.601"/><circle cx="204.67" cy="116.75" r="1.91" fill="#cadcf2" opacity="0.757"/><circle cx="28.74" cy="123.73" r="0.58" fill="#88a2c1" opacity="0.659"/><circle cx="221.56" cy="133.16" r="1.70" fill="#cadcf2" opacity="0.769"/><circle cx="62.94" cy="109.65" r="1.73" fill="#88a2c1" opacity="0.466"/><circle cx="24.73" cy="132.29" r="1.89" fill="#cadcf2" opacity="0.441"/><circle cx="41.42" cy="148.60" r="1.02" fill="#88a2c1" opacity="0.842"/><circle cx="92.18" cy="157.76" r="2.09" fill="#88a2c1" opacity="0.665"/><circle cx="214.83" cy="149.53" r="1.97" fill="#88a2c1" opacity="0.259"/><circle cx="74.54" cy="97.72" r="1.72" fill="#cadcf2" opacity="0.352"/><circle cx="161.12" cy="158.62" r="1.86" fill="#cadcf2" opacity="0.388"/><circle cx="186.75" cy="159.76" r="1.36" fill="#cadcf2" opacity="0.686"/><circle cx="202.05" cy="101.87" r="1.57" fill="#88a2c1" opacity="0.343"/><circle cx="151.01" cy="96.67" r="2.08" fill="#cadcf2" opacity="0.313"/><circle cx="42.37" cy="139.09" r="1.88" fill="#cadcf2" opacity="0.619"/><circle cx="203.61" cy="135.94" r="0.78" fill="#88a2c1" opacity="0.442"/><circle cx="31.03" cy="124.11" r="1.38" fill="#cadcf2" opacity="0.833"/><circle cx="172.58" cy="95.66" r="1.58" fill="#88a2c1" opacity="0.567"/><circle cx="195.42" cy="151.75" r="1.01" fill="#cadcf2" opacity="0.463"/><circle cx="103.97" cy="93.91" r="2.03" fill="#cadcf2" opacity="0.440"/><circle cx="57.04" cy="101.69" r="1.96" fill="#cadcf2" opacity="0.741"/><circle cx="191.49" cy="155.39" r="1.40" fill="#88a2c1" opacity="0.823"/><circle cx="49.78" cy="126.36" r="1.51" fill="#cadcf2" opacity="0.772"/><circle cx="86.39" cy="99.14" r="2.07" fill="#88a2c1" opacity="0.691"/><circle cx="202.87" cy="152.35" r="2.09" fill="#88a2c1" opacity="0.712"/><circle cx="200.52" cy="109.05" r="1.26" fill="#88a2c1" opacity="0.569"/><circle cx="217.67" cy="137.02" r="1.19" fill="#88a2c1" opacity="0.494"/><circle cx="173.98" cy="154.69" r="0.99" fill="#88a2c1" opacity="0.827"/><circle cx="39.53" cy="135.96" r="1.56" fill="#cadcf2" opacity="0.342"/><circle cx="52.02" cy="150.23" r="1.36" fill="#88a2c1" opacity="0.413"/><circle cx="210.16" cy="127.45" r="1.81" fill="#cadcf2" opacity="0.668"/><circle cx="171.38" cy="98.06" r="1.93" fill="#cadcf2" opacity="0.373"/><circle cx="208.71" cy="129.77" r="0.57" fill="#cadcf2" opacity="0.386"/><circle cx="128.88" cy="94.87" r="0.88" fill="#cadcf2" opacity="0.803"/><circle cx="184.78" cy="96.71" r="1.82" fill="#cadcf2" opacity="0.529"/><circle cx="213.60" cy="146.76" r="0.78" fill="#88a2c1" opacity="0.393"/><circle cx="33.24" cy="138.78" r="0.85" fill="#cadcf2" opacity="0.527"/><circle cx="133.72" cy="161.00" r="2.08" fill="#88a2c1" opacity="0.604"/><circle cx="228.81" cy="125.70" r="2.03" fill="#cadcf2" opacity="0.768"/><circle cx="207.61" cy="118.18" r="1.64" fill="#cadcf2" opacity="0.667"/><circle cx="213.69" cy="139.54" r="1.56" fill="#cadcf2" opacity="0.346"/><circle cx="197.97" cy="140.69" r="1.90" fill="#88a2c1" opacity="0.565"/><circle cx="213.55" cy="128.61" r="0.73" fill="#cadcf2" opacity="0.351"/><circle cx="187.66" cy="104.73" r="2.05" fill="#88a2c1" opacity="0.511"/><circle cx="163.86" cy="157.82" r="0.84" fill="#cadcf2" opacity="0.438"/><circle cx="162.60" cy="158.11" r="1.51" fill="#cadcf2" opacity="0.663"/><circle cx="95.43" cy="98.24" r="1.25" fill="#cadcf2" opacity="0.438"/><circle cx="185.60" cy="97.36" r="0.90" fill="#cadcf2" opacity="0.692"/><circle cx="149.19" cy="161.62" r="1.54" fill="#cadcf2" opacity="0.818"/><circle cx="65.82" cy="100.06" r="0.65" fill="#cadcf2" opacity="0.262"/><circle cx="45.45" cy="120.85" r="1.10" fill="#cadcf2" opacity="0.304"/><circle cx="115.07" cy="98.74" r="0.89" fill="#cadcf2" opacity="0.456"/><circle cx="223.39" cy="116.09" r="0.93" fill="#cadcf2" opacity="0.481"/><circle cx="38.35" cy="128.89" r="1.58" fill="#cadcf2" opacity="0.558"/><circle cx="42.84" cy="146.79" r="1.08" fill="#cadcf2" opacity="0.301"/><circle cx="73.98" cy="101.05" r="1.78" fill="#88a2c1" opacity="0.623"/><circle cx="219.79" cy="134.69" r="1.91" fill="#cadcf2" opacity="0.332"/><circle cx="75.10" cy="154.51" r="1.49" fill="#cadcf2" opacity="0.562"/><circle cx="47.72" cy="114.70" r="0.98" fill="#88a2c1" opacity="0.666"/><circle cx="215.64" cy="117.54" r="1.83" fill="#cadcf2" opacity="0.460"/><circle cx="218.22" cy="132.63" r="0.94" fill="#cadcf2" opacity="0.468"/><circle cx="207.35" cy="103.66" r="2.09" fill="#88a2c1" opacity="0.796"/><circle cx="150.54" cy="162.36" r="1.94" fill="#cadcf2" opacity="0.721"/><circle cx="215.49" cy="124.45" r="1.22" fill="#88a2c1" opacity="0.791"/><circle cx="170.18" cy="152.84" r="0.59" fill="#cadcf2" opacity="0.331"/><circle cx="206.05" cy="149.99" r="1.76" fill="#88a2c1" opacity="0.829"/><circle cx="39.49" cy="148.38" r="2.05" fill="#88a2c1" opacity="0.753"/><circle cx="56.16" cy="100.86" r="1.79" fill="#88a2c1" opacity="0.756"/><circle cx="214.64" cy="111.82" r="0.85" fill="#88a2c1" opacity="0.794"/><circle cx="223.48" cy="142.71" r="1.40" fill="#cadcf2" opacity="0.357"/><circle cx="208.05" cy="116.22" r="1.17" fill="#88a2c1" opacity="0.633"/><circle cx="32.98" cy="114.92" r="0.78" fill="#cadcf2" opacity="0.372"/><circle cx="208.33" cy="116.72" r="0.68" fill="#cadcf2" opacity="0.820"/><circle cx="58.87" cy="141.49" r="1.16" fill="#88a2c1" opacity="0.442"/><circle cx="117.12" cy="164.81" r="0.95" fill="#cadcf2" opacity="0.762"/><circle cx="30.24" cy="128.89" r="0.91" fill="#88a2c1" opacity="0.813"/><circle cx="167.54" cy="102.55" r="1.37" fill="#88a2c1" opacity="0.651"/><circle cx="210.98" cy="126.26" r="0.96" fill="#88a2c1" opacity="0.507"/><circle cx="210.14" cy="130.59" r="0.70" fill="#88a2c1" opacity="0.298"/><circle cx="202.82" cy="120.33" r="1.76" fill="#cadcf2" opacity="0.463"/><circle cx="217.75" cy="145.58" r="0.66" fill="#cadcf2" opacity="0.250"/><circle cx="213.01" cy="130.30" r="2.02" fill="#cadcf2" opacity="0.612"/><circle cx="46.27" cy="147.54" r="1.44" fill="#cadcf2" opacity="0.352"/><circle cx="120.41" cy="165.55" r="1.88" fill="#88a2c1" opacity="0.553"/><circle cx="222.70" cy="123.22" r="0.67" fill="#cadcf2" opacity="0.482"/><circle cx="197.74" cy="150.89" r="0.58" fill="#cadcf2" opacity="0.706"/><circle cx="67.78" cy="104.44" r="0.54" fill="#88a2c1" opacity="0.808"/><circle cx="185.08" cy="96.50" r="1.54" fill="#88a2c1" opacity="0.746"/><circle cx="101.87" cy="157.88" r="1.57" fill="#cadcf2" opacity="0.836"/><circle cx="215.98" cy="126.45" r="0.59" fill="#cadcf2" opacity="0.676"/><circle cx="219.07" cy="130.33" r="1.11" fill="#cadcf2" opacity="0.561"/><circle cx="201.55" cy="155.05" r="0.95" fill="#cadcf2" opacity="0.563"/><circle cx="172.89" cy="153.64" r="1.65" fill="#cadcf2" opacity="0.272"/><circle cx="124.82" cy="162.02" r="0.76" fill="#cadcf2" opacity="0.396"/><circle cx="54.97" cy="107.45" r="1.89" fill="#88a2c1" opacity="0.320"/><circle cx="50.69" cy="148.69" r="0.86" fill="#88a2c1" opacity="0.539"/><circle cx="159.31" cy="164.97" r="0.69" fill="#88a2c1" opacity="0.718"/><circle cx="209.20" cy="139.19" r="1.04" fill="#88a2c1" opacity="0.284"/><circle cx="25.18" cy="134.19" r="0.55" fill="#88a2c1" opacity="0.666"/><circle cx="74.65" cy="97.06" r="1.07" fill="#cadcf2" opacity="0.684"/><circle cx="111.13" cy="158.72" r="0.75" fill="#88a2c1" opacity="0.274"/><circle cx="61.42" cy="143.51" r="0.59" fill="#cadcf2" opacity="0.682"/><circle cx="130.72" cy="97.97" r="0.82" fill="#88a2c1" opacity="0.832"/><circle cx="198.97" cy="154.30" r="1.25" fill="#88a2c1" opacity="0.636"/><circle cx="224.09" cy="133.38" r="2.08" fill="#88a2c1" opacity="0.560"/><circle cx="71.82" cy="152.50" r="1.34" fill="#cadcf2" opacity="0.270"/><circle cx="74.52" cy="150.58" r="1.46" fill="#cadcf2" opacity="0.773"/>
</svg>