<?xml version="1.0" encoding="UTF-8"?>
<svg xmlns="http://www.w3.org/2000/svg" width="256" height="256" viewBox="0 0 256 256">
  <defs>
    <radialGradient id="ring-metal-rich" cx="50%" cy="50%" r="50%">
      <stop offset="0%" stop-color="#685b4f" stop-opacity="0"/>
      <stop offset="65%" stop-color="#b59a7d" stop-opacity="0.35"/>
      <stop offset="100%" stop-color="#e2c9a8" stop-opacity="0.72"/>
    </radialGradient>
    <mask id="inner-metal-rich">
      <rect width="256" height="256" fill="white"/>
      <ellipse cx="128" cy="128" rx="69.89" ry="26.62" fill="black"/>
    </mask>
  </defs>
  <ellipse cx="128" cy="128" rx="107.52" ry="40.96" fill="url(#ring-metal-rich)" mask="url(#inner-metal-rich)"/>
  <circle cx="95.90" cy="156.33" r="1.05" fill="#e2c9a8" opacity="0.606"/><circle cx="158.84" cy="156.56" r="0.53" fill="#e2c9a8" opacity="0.638"/><circle cx="209.03" cy="147.71" r="1.11" fill="#e2c9a8" opacity="0.719"/><circle cx="45.63" cy="126.37" r="1.14" fill="#b59a7d" opacity="0.415"/><circle cx="63.13" cy="97.96" r="1.24" fill="#e2c9a8" opacity="0.776"/><circle cx="186.51" cy="103.12" r="0.55" fill="#b59a7d" opacity="0.615"/><circle cx="221.93" cy="135.10" r="0.64" fill="#b59a7d" opacity="0.569"/><circle cx="215.90" cy="109.96" r="1.96" fill="#b59a7d" opacity="0.405"/><circle cx="102.05" cy="98.03" r="1.49" fill="#b59a7d" opacity="0.439"/><circle cx="47.62" cy="120.70" r="1.85" fill="#b59a7d" opacity="0.645"/><circle cx="43.02" cy="125.08" r="0.99" fill="#e2c9a8" opacity="0.312"/><circle cx="175.97" cy="101.65" r="0.52" fill="#b59a7d" opacity="0.390"/><circle cx="212.54" cy="113.30" r="1.95" fill="#e2c9a8" opacity="0.833"/><circle cx="63.78" cy="151.23" r="0.52" fill="#b59a7d" opacity="0.771"/><circle cx="187.26" cy="159.29" r="1.59" fill="#b59a7d" opacity="0.496"/><circle cx="34.36" cy="132.70" r="0.60" fill="#b59a7d" opacity="0.276"/><circle cx="80.84" cy="159.41" r="0.69" fill="#b59a7d" opacity="0.574"/><circle cx="137.50" cy="90.48" r="2.03" fill="#e2c9a8" opacity="0.261"/><circle cx="33.56" cy="141.14" r="1.82" fill="#e2c9a8" opacity="0.756"/><circle cx="69.55" cy="107.33" r="2.02" fill="#b59a7d" opacity="0.311"/><circle cx="35.39" cy="144.07" r="0.64" fill="#e2c9a8" opacity="0.260"/><circle cx="90.21" cy="102.13" r="0.65" fill="#e2c9a8" opacity="0.700"/><circle cx="201.09" cy="146.23" r="1.61" fill="#b59a7d" opacity="0.716"/><circle cx="41.36" cy="118.00" r="1.09" fill="#b59a7d" opacity="0.396"/><circle cx="42.50" cy="147.36" r="0.90" fill="#b59a7d" opacity="0.311"/><circle cx="193.49" cy="103.07" r="0.76" fill="#b59a7d" opacity="0.433"/><circle cx="152.10" cy="162.55" r="1.43" fill="#e2c9a8" opacity="0.368"/><circle cx="200.48" cy="145.16" r="2.01" fill="#b59a7d" opacity="0.653"/><circle cx="137.97" cy="94.57" r="1.34" fill="#b59a7d" opacity="0.814"/><circle cx="93.46" cy="154.80" r="0.70" fill="#b59a7d" opacity="0.490"/><circle cx="214.23" cy="126.46" r="1.90" fill="#e2c9a8" opacity="0.386"/><circle cx="170.10" cy="95.03" r="0.98" fill="#b59a7d" opacity="0.352"/><circle cx="199.89" cy="147.41" r="1.66" fill="#b59a7d" opacity="0.326"/><circle cx="168.17" cy="153.32" r="1.14" fill="#b59a7d" opacity="0.303"/><circle cx="54.35" cy="106.67" r="2.02" fill="#b59a7d" opacity="0.596"/><circle cx="60.25" cy="101.09" r="1.13" fill="#b59a7d" opacity="0.284"/><circle cx="225.49" cy="129.39" r="0.60" fill="#b59a7d" opacity="0.303"/><circle cx="70.26" cy="155.45" r="1.07" fill="#b59a7d" opacity="0.654"/><circle cx="121.45" cy="165.05" r="1.88" fill="#e2c9a8" opacity="0.338"/><circle cx="213.57" cy="136.40" r="1.53" fill="#b59a7d" opacity="0.598"/><circle cx="170.90" cy="155.04" r="1.23" fill="#b59a7d" opacity="0.397"/><circle cx="191.68" cy="107.31" r="0.94" fill="#e2c9a8" opacity="0.251"/><circle cx="175.73" cy="95.73" r="1.72" fill="#b59a7d" opacity="0.457"/><circle cx="203.09" cy="146.67" r="1.75" fill="#e2c9a8" opacity="0.673"/><circle cx="206.86" cy="124.35" r="1.61" fill="#b59a7d" opacity="0.606"/><circle cx="217.48" cy="109.46" r="0.91" fill="#e2c9a8" opacity="0.688"/><circle cx="50.54" cy="142.99" r="0.61" fill="#e2c9a8" opacity="0.758"/><circle cx="72.42" cy="106.97" r="1.12" fill="#b59a7d" opacity="0.541"/><circle cx="37.04" cy="127.02" r="1.68" fill="#e2c9a8" opacity="0.610"/><circle cx="27.04" cy="129.69" r="1.63" fill="#e2c9a8" opacity="0.473"/><circle cx="131.00" cy="93.94" r="1.97" fill="#b59a7d" opacity="0.752"/><circle cx="130.55" cy="157.92" r="1.42" fill="#b59a7d" opacity="0.547"/><circle cx="35.39" cy="142.32" r="1.49" fill="#b59a7d" opacity="0.574"/><circle cx="51.90" cy="119.00" r="1.22" fill="#b59a7d" opacity="0.377"/><circle cx="103.12" cy="163.53" r="1.20" fill="#b59a7d" opacity="0.845"/><circle cx="53.40" cy="148.83" r="0.86" fill="#e2c9a8" opacity="0.257"/><circle cx="36.95" cy="145.00" r="1.71" fill="#b59a7d" opacity="0.660"/><circle cx="54.76" cy="147.03" r="1.44" fill="#e2c9a8" opacity="0.504"/><circle cx="36.67" cy="136.95" r="1.72" fill="#b59a7d" opacity="0.675"/><circle cx="123.81" cy="160.62" r="1.76" fill="#e2c9a8" opacity="0.781"/><circle cx="211.41" cy="126.49" r="1.57" fill="#e2c9a8" opacity="0.824"/><circle cx="215.90" cy="125.01" r="1.51" fill="#e2c9a8" opacity="0.824"/><circle cx="54.41" cy="145.05" r="2.08" fill="#b59a7d" opacity="0.468"/><circle cx="65.86" cy="154.70" r="1.44" fill="#e2c9a8" opacity="0.455"/><circle cx="135.60" cy="91.08" r="1.12" fill="#e2c9a8" opacity="0.837"/><circle cx="56.58" cy="153.23" r="1.36" fill="#b59a7d" opacity="0.270"/><circle cx="184.84" cy="151.44" r="0.99" fill="#e2c9a8" opacity="0.610"/><circle cx="120.07" cy="161.40" r="0.53" fill="#e2c9a8" opacity="0.323"/><circle cx="190.28" cy="108.15" r="0.53" fill="#e2c9a8" opacity="0.616"/><circle cx="46.89" cy="111.81" r="1.53" fill="#e2c9a8" opacity="0.434"/><circle cx="197.92" cy="101.11" r="0.79" fill="#e2c9a8" opacity="0.803"/><circle cx="44.61" cy="120.35" r="0.87" fill="#e2c9a8" opacity="0.672"/><circle cx="147.07" cy="97.33" r="1.03" fill="#e2c9a8" opacity="0.494"/><circle cx="56.16" cy="141.08" r="1.64" fill="#e2c9a8" opacity="0.284"/><circle cx="130.92" cy="164.83" r="0.86" fill="#b59a7d" opacity="0.310"/><circle cx="227.30" cy="123.13" r="0.64" fill="#e2c9a8" opacity="0.564"/><circle cx="45.90" cy="108.22" r="0.88" fill="#b59a7d" opacity="0.621"/><circle cx="154.56" cy="163.99" r="1.33" fill="#b59a7d" opacity="0.818"/><circle cx="65.88" cy="148.51" r="0.64" fill="#b59a7d" opacity="0.354"/><circle cx="172.57" cy="103.14" r="1.22" fill="#e2c9a8" opacity="0.508"/><circle cx="224.05" cy="119.25" r="1.42" fill="#e2c9a8" opacity="0.616"/><circle cx="110.52" cy="158.96" r="1.57" fill="#e2c9a8" opacity="0.376"/><circle cx="211.17" cy="142.70" r="1.60" fill="#e2c9a8" opacity="0.268"/><circle cx="61.59" cy="151.17" r="0.89" fill="#e2c9a8" opacity="0.735"/><circle cx="175.85" cy="157.62" r="1.49" fill="#b59a7d" opacity="0.777"/><circle cx="165.28" cy="93.88" r="1.55" fill="#e2c9a8" opacity="0.446"/><circle cx="101.38" cy="99.50" r="1.11" fill="#e2c9a8" opacity="0.774"/><circle cx="213.56" cy="150.36" r="1.68" fill="#b59a7d" opacity="0.294"/><circle cx="36.65" cy="131.61" r="0.67" fill="#b59a7d" opacity="0.261"/><circle cx="29.13" cy="140.63" r="0.98" fill="#e2c9a8" opacity="0.560"/><circle cx="31.95" cy="133.35" r="0.56" fill="#e2c9a8" opacity="0.278"/><circle cx="52.81" cy="135.91" r="1.99" fill="#e2c9a8" opacity="0.551"/><circle cx="50.35" cy="130.59" r="1.83" fill="#b59a7d" opacity="0.429"/><circle cx="47.48" cy="136.02" r="0.56" fill="#b59a7d" opacity="0.635"/><circle cx="100.43" cy="157.87" r="0.70" fill="#e2c9a8" opacity="0.262"/><circle cx="213.07" cy="127.68" r="0.73" fill="#e2c9a8" opacity="0.604"/><circle cx="66.96" cy="100.60" r="0.50" fill="#b59a7d" opacity="0.696"/><circle cx="153.42" cy="97.57" r="1.80" fill="#e2c9a8" opacity="0.443"/><circle cx="211.89" cy="144.41" r="0.80" fill="#e2c9a8" opacity="0.572"/><circle cx="223.58" cy="129.11" r="0.66" fill="#e2c9a8" opacity="0.490"/><circle cx="117.95" cy="157.53" r="1.97" fill="#e2c9a8" opacity="0.757"/><circle cx="217.64" cy="121.29" r="1.25" fill="#e2c9a8" opacity="0.473"/><circle cx="29.85" cy="127.58" r="1.12" fill="#e2c9a8" opacity="0.353"/><circle cx="125.62" cy="161.67" r="0.64" fill="#e2c9a8" opacity="0.603"/><circle cx="224.35" cy="123.87" r="1.77" fill="#b59a7d" opacity="0.427"/><circle cx="127.38" cy="90.16" r="1.81" fill="#b59a7d" opacity="0.765"/><circle cx="72.27" cy="100.75" r="2.00" fill="#e2c9a8" opacity="0.762"/><circle cx="41.60" cy="126.35" r="0.62" fill="#e2c9a8" opacity="0.302"/><circle cx="193.12" cy="105.86" r="1.39" fill="#b59a7d" opacity="0.495"/><circle cx="202.09" cy="155.35" r="2.04" fill="#b59a7d" opacity="0.478"/><circle cx="105.72" cy="90.20" r="1.58" fill="#b59a7d" opacity="0.294"/><circle cx="99.18" cy="90.15" r="1.74" fill="#b59a7d" opacity="0.625"/><circle cx="82.83" cy="161.04" r="0.76" fill="#b59a7d" opacity="0.300"/><circle cx="209.43" cy="123.86" r="1.18" fill="#e2c9a8" opacity="0.480"/><circle cx="194.15" cy="106.79" r="0.55" fill="#e2c9a8" opacity="0.753"/><circle cx="217.54" cy="142.59" r="0.57" fill="#b59a7d" opacity="0.571"/><circle cx="212.31" cy="127.46" r="1.55" fill="#e2c9a8" opacity="0.535"/><circle cx="43.14" cy="146.72" r="0.69" fill="#e2c9a8" opacity="0.604"/><circle cx="173.04" cy="155.46" r="0.77" fill="#e2c9a8" opacity="0.606"/><circle cx="40.42" cy="117.92" r="0.81" fill="#b59a7d" opacity="0.601"/><circle cx="44.24" cy="121.05" r="2.02" fill="#e2c9a8" opacity="0.705"/><circle cx="116.28" cy="97.71" r="1.15" fill="#b59a7d" opacity="0.779"/><circle cx="30.55" cy="127.80" r="0.59" fill="#b59a7d" opacity="0.652"/><circle cx="63.71" cy="150.84" r="0.55" fill="#b59a7d" opacity="0.695"/><circle cx="209.25" cy="135.55" r="0.93" fill="#e2c9a8" opacity="0.619"/><circle cx="63.35" cy="149.10" r="1.41" fill="#b59a7d" opacity="0.371"/><circle cx="170.50" cy="94.81" r="1.70" fill="#e2c9a8" opacity="0.838"/><circle cx="63.21" cy="108.98" r="1.55" fill="#e2c9a8" opacity="0.315"/><circle cx="190.19" cy="154.23" r="1.23" fill="#e2c9a8" opacity="0.461"/><circle cx="65.03" cy="98.32" r="1.30" fill="#e2c9a8" opacity="0.439"/><circle cx="32.71" cy="118.52" r="0.73" fill="#b59a7d" opacity="0.265"/><circle cx="168.34" cy="99.59" r="1.27" fill="#e2c9a8" opacity="0.523"/><circle cx="37.25" cy="137.14" r="1.81" fill="#b59a7d" opacity="0.716"/><circle cx="38.38" cy="129.06" r="1.36" fill="#e2c9a8" opacity="0.545"/><circle cx="113.11" cy="89.92" r="1.94" fill="#e2c9a8" opacity="0.505"/><circle cx="79.80" cy="94.00" r="1.91" fill="#b59a7d" opacity="0.299"/><circle cx="121.25" cy="89.85" r="0.62" fill="#b59a7d" opacity="0.387"/><circle cx="155.39" cy="160.59" r="1.55" fill="#e2c9a8" opacity="0.523"/><circle cx="201.84" cy="155.42" r="1.27" fill="#b59a7d" opacity="0.577"/><circle cx="46.53" cy="114.25" r="1.16" fill="#b59a7d" opacity="0.813"/>
</svg>