<?xml version="1.0" encoding="UTF-8"?>
<svg xmlns="http://www.w3.org/2000/svg" width="256" height="256" viewBox="0 0 256 256">
  <defs>
    <radialGradient id="ring-rocky-asteroid-belt" cx="50%" cy="50%" r="50%">
      <stop offset="0%" stop-color="#5a5349" stop-opacity="0"/>
      <stop offset="65%" stop-color="#908673" stop-opacity="0.35"/>
      <stop offset="100%" stop-color="#c4b79b" stop-opacity="0.72"/>
    </radialGradient>
    <mask id="inner-rocky-asteroid-belt">
      <rect width="256" height="256" fill="white"/>
      <ellipse cx="128" cy="128" rx="69.89" ry="26.62" fill="black"/>
    </mask>
  </defs>
  <ellipse cx="128" cy="128" rx="107.52" ry="40.96" fill="url(#ring-rocky-asteroid-belt)" mask="url(#inner-rocky-asteroid-belt)"/>
  <circle cx="91.71" cy="94.91" r="1.22" fill="#c4b79b" opacity="0.466"/><circle cx="26.06" cy="130.22" r="1.54" fill="#c4b79b" opacity="0.673"/><circle cx="163.78" cy="93.60" r="0.64" fill="#c4b79b" opacity="0.426"/><circle cx="204.90" cy="136.74" r="0.98" fill="#c4b79b" opacity="0.413"/><circle cx="129.87" cy="93.57" r="0.93" fill="#908673" opacity="0.258"/><circle cx="194.43" cy="97.53" r="1.28" fill="#c4b79b" opacity="0.659"/><circle cx="43.86" cy="122.75" r="0.98" fill="#c4b79b" opacity="0.819"/><circle cx="149.29" cy="95.01" r="1.46" fill="#908673" opacity="0.595"/><circle cx="187.78" cy="146.80" r="0.92" fill="#908673" opacity="0.525"/><circle cx="215.88" cy="144.98" r="0.81" fill="#908673" opacity="0.834"/><circle cx="189.19" cy="150.28" r="1.96" fill="#908673" opacity="0.836"/><circle cx="171.30" cy="101.64" r="0.63" fill="#908673" opacity="0.362"/><circle cx="162.81" cy="97.82" r="2.04" fill="#908673" opacity="0.673"/><circle cx="37.99" cy="127.78" r="0.68" fill="#c4b79b" opacity="0.374"/><circle cx="94.09" cy="96.22" r="1.21" fill="#908673" opacity="0.417"/><circle cx="100.24" cy="94.73" r="1.31" fill="#908673" opacity="0.819"/><circle cx="97.21" cy="92.92" r="1.28" fill="#908673" opacity="0.527"/><circle cx="83.01" cy="102.36" r="1.62" fill="#908673" opacity="0.413"/><circle cx="177.18" cy="98.20" r="1.62" fill="#c4b79b" opacity="0.273"/><circle cx="106.76" cy="163.42" r="1.47" fill="#908673" opacity="0.310"/><circle cx="157.87" cy="158.24" r="1.03" fill="#c4b79b" opacity="0.603"/><circle cx="49.61" cy="150.30" r="1.97" fill="#908673" opacity="0.417"/><circle cx="207.01" cy="141.96" r="1.47" fill="#908673" opacity="0.253"/><circle cx="173.08" cy="96.12" r="1.36" fill="#908673" opacity="0.704"/><circle cx="189.03" cy="155.25" r="0.64" fill="#c4b79b" opacity="0.370"/><circle cx="153.31" cy="165.55" r="1.58" fill="#c4b79b" opacity="0.845"/><circle cx="203.39" cy="114.43" r="1.92" fill="#908673" opacity="0.812"/><circle cx="212.86" cy="150.04" r="1.10" fill="#908673" opacity="0.353"/><circle cx="32.74" cy="116.57" r="1.56" fill="#908673" opacity="0.675"/><circle cx="229.46" cy="136.84" r="1.85" fill="#c4b79b" opacity="0.526"/><circle cx="175.48" cy="153.72" r="0.94" fill="#908673" opacity="0.579"/><circle cx="202.78" cy="119.75" r="1.82" fill="#c4b79b" opacity="0.341"/><circle cx="57.06" cy="100.21" r="2.09" fill="#c4b79b" opacity="0.432"/><circle cx="71.15" cy="153.35" r="1.62" fill="#908673" opacity="0.722"/><circle cx="190.06" cy="148.02" r="1.13" fill="#c4b79b" opacity="0.639"/><circle cx="73.24" cy="98.41" r="1.41" fill="#c4b79b" opacity="0.352"/><circle cx="38.42" cy="122.26" r="0.93" fill="#908673" opacity="0.631"/><circle cx="35.48" cy="125.90" r="1.85" fill="#c4b79b" opacity="0.392"/><circle cx="117.01" cy="159.06" r="1.19" fill="#c4b79b" opacity="0.445"/><circle cx="79.27" cy="153.63" r="0.52" fill="#c4b79b" opacity="0.267"/><circle cx="76.59" cy="105.36" r="0.78" fill="#908673" opacity="0.691"/><circle cx="90.47" cy="156.59" r="2.01" fill="#908673" opacity="0.344"/><circle cx="28.39" cy="127.87" r="0.87" fill="#908673" opacity="0.452"/><circle cx="144.53" cy="91.39" r="1.13" fill="#908673" opacity="0.331"/><circle cx="58.24" cy="145.77" r="1.64" fill="#c4b79b" opacity="0.496"/><circle cx="119.31" cy="89.12" r="1.91" fill="#c4b79b" opacity="0.480"/><circle cx="43.17" cy="149.85" r="1.37" fill="#908673" opacity="0.303"/><circle cx="201.00" cy="138.65" r="1.08" fill="#908673" opacity="0.684"/><circle cx="217.72" cy="120.86" r="1.36" fill="#c4b79b" opacity="0.638"/><circle cx="195.90" cy="104.20" r="0.71" fill="#c4b79b" opacity="0.315"/><circle cx="206.89" cy="140.27" r="1.13" fill="#c4b79b" opacity="0.757"/><circle cx="217.38" cy="138.59" r="1.45" fill="#c4b79b" opacity="0.614"/><circle cx="200.66" cy="142.01" r="1.92" fill="#c4b79b" opacity="0.727"/><circle cx="119.15" cy="97.22" r="1.20" fill="#908673" opacity="0.493"/><circle cx="150.89" cy="96.03" r="1.95" fill="#c4b79b" opacity="0.288"/><circle cx="131.57" cy="93.01" r="0.59" fill="#908673" opacity="0.415"/><circle cx="195.42" cy="155.66" r="1.49" fill="#908673" opacity="0.564"/><circle cx="41.50" cy="136.90" r="0.70" fill="#c4b79b" opacity="0.765"/><circle cx="195.55" cy="103.72" r="0.62" fill="#c4b79b" opacity="0.842"/><circle cx="91.83" cy="95.71" r="2.03" fill="#908673" opacity="0.503"/><circle cx="98.97" cy="156.49" r="1.84" fill="#c4b79b" opacity="0.752"/><circle cx="208.86" cy="117.95" r="1.52" fill="#c4b79b" opacity="0.261"/><circle cx="78.22" cy="153.44" r="0.87" fill="#c4b79b" opacity="0.791"/><circle cx="174.24" cy="157.89" r="1.27" fill="#908673" opacity="0.396"/><circle cx="209.02" cy="135.59" r="0.70" fill="#c4b79b" opacity="0.647"/><circle cx="141.05" cy="164.56" r="0.62" fill="#908673" opacity="0.616"/><circle cx="135.87" cy="165.23" r="0.86" fill="#908673" opacity="0.650"/><circle cx="223.70" cy="128.29" r="1.92" fill="#908673" opacity="0.284"/><circle cx="64.17" cy="153.02" r="1.25" fill="#908673" opacity="0.700"/><circle cx="85.70" cy="95.68" r="1.95" fill="#c4b79b" opacity="0.682"/><circle cx="200.53" cy="113.27" r="1.49" fill="#c4b79b" opacity="0.523"/><circle cx="206.78" cy="134.02" r="1.43" fill="#908673" opacity="0.308"/><circle cx="207.22" cy="128.29" r="0.90" fill="#c4b79b" opacity="0.822"/><circle cx="101.05" cy="157.22" r="0.63" fill="#908673" opacity="0.489"/><circle cx="34.39" cy="126.10" r="1.10" fill="#c4b79b" opacity="0.727"/><circle cx="42.24" cy="150.27" r="0.65" fill="#908673" opacity="0.581"/><circle cx="201.07" cy="113.55" r="0.52" fill="#908673" opacity="0.307"/><circle cx="30.13" cy="127.97" r="0.83" fill="#c4b79b" opacity="0.488"/><circle cx="96.33" cy="159.75" r="1.78" fill="#c4b79b" opacity="0.460"/><circle cx="76.31" cy="93.95" r="1.01" fill="#c4b79b" opacity="0.347"/><circle cx="218.45" cy="138.74" r="1.79" fill="#c4b79b" opacity="0.838"/><circle cx="222.22" cy="122.03" r="1.31" fill="#c4b79b" opacity="0.838"/><circle cx="190.15" cy="100.64" r="1.78" fill="#908673" opacity="0.270"/><circle cx="225.05" cy="123.03" r="0.91" fill="#908673" opacity="0.842"/><circle cx="135.39" cy="157.89" r="1.03" fill="#908673" opacity="0.425"/><circle cx="169.78" cy="100.49" r="1.81" fill="#908673" opacity="0.260"/><circle cx="192.09" cy="158.52" r="1.58" fill="#908673" opacity="0.481"/><circle cx="213.63" cy="138.82" r="0.74" fill="#c4b79b" opacity="0.328"/><circle cx="42.96" cy="117.89" r="0.82" fill="#908673" opacity="0.501"/><circle cx="216.46" cy="131.04" r="1.69" fill="#c4b79b" opacity="0.734"/><circle cx="145.65" cy="99.15" r="2.08" fill="#c4b79b" opacity="0.449"/><circle cx="60.48" cy="106.11" r="1.84" fill="#908673" opacity="0.566"/><circle cx="116.15" cy="96.17" r="0.55" fill="#c4b79b" opacity="0.506"/><circle cx="41.48" cy="127.65" r="1.63" fill="#908673" opacity="0.466"/><circle cx="53.51" cy="116.30" r="0.89" fill="#908673" opacity="0.687"/><circle cx="36.78" cy="127.92" r="1.46" fill="#908673" opacity="0.325"/><circle cx="176.53" cy="154.82" r="0.81" fill="#c4b79b" opacity="0.708"/><circle cx="212.57" cy="139.89" r="1.52" fill="#c4b79b" opacity="0.276"/><circle cx="49.90" cy="148.21" r="1.21" fill="#908673" opacity="0.432"/><circle cx="99.08" cy="95.35" r="1.96" fill="#c4b79b" opacity="0.259"/><circle cx="160.19" cy="100.36" r="1.12" fill="#c4b79b" opacity="0.480"/><circle cx="55.36" cy="150.04" r="1.17" fill="#c4b79b" opacity="0.755"/><circle cx="97.66" cy="98.23" r="1.70" fill="#908673" opacity="0.816"/><circle cx="196.26" cy="107.52" r="1.86" fill="#908673" opacity="0.461"/><circle cx="221.01" cy="139.96" r="1.25" fill="#908673" opacity="0.469"/><circle cx="217.45" cy="131.69" r="1.16" fill="#c4b79b" opacity="0.645"/><circle cx="73.58" cy="104.91" r="1.70" fill="#908673" opacity="0.484"/><circle cx="66.79" cy="146.44" r="0.58" fill="#908673" opacity="0.340"/><circle cx="221.53" cy="144.49" r="0.62" fill="#c4b79b" opacity="0.415"/><circle cx="175.25" cy="161.46" r="1.44" fill="#c4b79b" opacity="0.471"/><circle cx="206.77" cy="116.29" r="0.80" fill="#908673" opacity="0.738"/><circle cx="26.85" cy="136.57" r="1.22" fill="#c4b79b" opacity="0.415"/><circle cx="41.84" cy="122.52" r="0.58" fill="#908673" opacity="0.710"/><circle cx="63.08" cy="111.10" r="0.82" fill="#c4b79b" opacity="0.594"/><circle cx="187.61" cy="151.53" r="0.51" fill="#908673" opacity="0.758"/><circle cx="48.21" cy="139.85" r="0.98" fill="#c4b79b" opacity="0.374"/><circle cx="84.65" cy="95.46" r="1.65" fill="#908673" opacity="0.377"/><circle cx="214.30" cy="139.29" r="2.01" fill="#908673" opacity="0.413"/><circle cx="189.90" cy="150.68" r="0.73" fill="#908673" opacity="0.844"/><circle cx="181.02" cy="158.14" r="0.58" fill="#908673" opacity="0.489"/><circle cx="168.76" cy="102.71" r="1.27" fill="#908673" opacity="0.471"/><circle cx="164.93" cy="101.16" r="0.64" fill="#908673" opacity="0.775"/><circle cx="225.49" cy="140.77" r="1.33" fill="#c4b79b" opacity="0.579"/><circle cx="34.21" cy="115.44" r="0.83" fill="#908673" opacity="0.449"/><circle cx="138.70" cy="162.75" r="0.92" fill="#908673" opacity="0.457"/><circle cx="71.64" cy="101.62" r="2.01" fill="#908673" opacity="0.434"/><circle cx="63.82" cy="154.87" r="1.95" fill="#908673" opacity="0.515"/><circle cx="28.38" cy="120.18" r="0.84" fill="#c4b79b" opacity="0.591"/><circle cx="51.04" cy="146.44" r="1.87" fill="#908673" opacity="0.486"/><circle cx="100.35" cy="92.68" r="1.73" fill="#908673" opacity="0.308"/><circle cx="79.89" cy="98.18" r="1.89" fill="#908673" opacity="0.606"/><circle cx="67.09" cy="154.70" r="1.95" fill="#908673" opacity="0.487"/><circle cx="174.91" cy="97.97" r="0.71" fill="#c4b79b" opacity="0.408"/><circle cx="173.02" cy="97.55" r="1.97" fill="#908673" opacity="0.676"/><circle cx="186.98" cy="103.92" r="1.92" fill="#908673" opacity="0.684"/><circle cx="120.61" cy="163.66" r="0.91" fill="#c4b79b" opacity="0.776"/><circle cx="73.78" cy="161.86" r="1.53" fill="#c4b79b" opacity="0.358"/><circle cx="180.60" cy="102.89" r="1.71" fill="#908673" opacity="0.578"/><circle cx="98.14" cy="97.96" r="0.88" fill="#c4b79b" opacity="0.690"/><circle cx="216.25" cy="112.29" r="0.91" fill="#c4b79b" opacity="0.495"/>
</svg>