<?xml version="1.0" encoding="UTF-8"?>
<svg xmlns="http://www.w3.org/2000/svg" width="256" height="256" viewBox="0 0 256 256">
  <defs>
    <radialGradient id="ring-warm-exozodiacal-dust" cx="50%" cy="50%" r="50%">
      <stop offset="0%" stop-color="#7c5f43" stop-opacity="0"/>
      <stop offset="65%" stop-color="#b98b5f" stop-opacity="0.35"/>
      <stop offset="100%" stop-color="#d2a97a" stop-opacity="0.72"/>
    </radialGradient>
    <mask id="inner-warm-exozodiacal-dust">
      <rect width="256" height="256" fill="white"/>
      <ellipse cx="128" cy="128" rx="69.89" ry="26.62" fill="black"/>
    </mask>
  </defs>
  <ellipse cx="128" cy="128" rx="107.52" ry="40.96" fill="url(#ring-warm-exozodiacal-dust)" mask="url(#inner-warm-exozodiacal-dust)"/>
  <circle cx="66.12" cy="106.77" r="1.29" fill="#d2a97a" opacity="0.510"/><circle cx="204.91" cy="115.68" r="1.97" fill="#d2a97a" opacity="0.509"/><circle cx="84.64" cy="161.40" r="0.95" fill="#b98b5f" opacity="0.650"/><circle cx="206.65" cy="142.77" r="0.85" fill="#d2a97a" opacity="0.514"/><circle cx="151.83" cy="90.87" r="1.25" fill="#b98b5f" opacity="0.548"/><circle cx="54.19" cy="151.39" r="0.53" fill="#d2a97a" opacity="0.701"/><circle cx="77.84" cy="153.72" r="1.29" fill="#b98b5f" opacity="0.411"/><circle cx="63.30" cy="99.41" r="0.62" fill="#b98b5f" opacity="0.306"/><circle cx="71.73" cy="101.30" r="1.76" fill="#d2a97a" opacity="0.658"/><circle cx="202.14" cy="148.87" r="1.14" fill="#b98b5f" opacity="0.680"/><circle cx="75.30" cy="104.61" r="0.83" fill="#d2a97a" opacity="0.289"/><circle cx="155.55" cy="162.15" r="0.69" fill="#d2a97a" opacity="0.790"/><circle cx="156.85" cy="99.59" r="0.86" fill="#b98b5f" opacity="0.837"/><circle cx="48.68" cy="149.08" r="1.86" fill="#d2a97a" opacity="0.509"/><circle cx="218.90" cy="139.23" r="2.01" fill="#d2a97a" opacity="0.758"/><circle cx="138.04" cy="94.93" r="0.65" fill="#b98b5f" opacity="0.352"/><circle cx="148.01" cy="95.57" r="1.83" fill="#b98b5f" opacity="0.304"/><circle cx="160.93" cy="95.98" r="1.26" fill="#d2a97a" opacity="0.628"/><circle cx="46.67" cy="151.96" r="1.78" fill="#b98b5f" opacity="0.537"/><circle cx="71.85" cy="154.18" r="1.48" fill="#d2a97a" opacity="0.563"/><circle cx="207.41" cy="132.16" r="0.86" fill="#d2a97a" opacity="0.600"/><circle cx="137.57" cy="162.17" r="1.59" fill="#d2a97a" opacity="0.829"/><circle cx="226.50" cy="128.34" r="1.80" fill="#b98b5f" opacity="0.370"/><circle cx="199.56" cy="101.25" r="2.03" fill="#b98b5f" opacity="0.644"/><circle cx="57.95" cy="114.98" r="1.76" fill="#b98b5f" opacity="0.538"/><circle cx="184.04" cy="155.71" r="0.59" fill="#b98b5f" opacity="0.413"/><circle cx="94.06" cy="158.77" r="0.78" fill="#b98b5f" opacity="0.491"/><circle cx="43.86" cy="150.30" r="1.53" fill="#b98b5f" opacity="0.701"/><circle cx="207.38" cy="129.60" r="2.01" fill="#b98b5f" opacity="0.335"/><circle cx="120.12" cy="165.49" r="1.90" fill="#b98b5f" opacity="0.621"/><circle cx="124.83" cy="160.81" r="1.58" fill="#d2a97a" opacity="0.762"/><circle cx="176.05" cy="158.52" r="0.63" fill="#d2a97a" opacity="0.772"/><circle cx="37.88" cy="143.46" r="0.58" fill="#d2a97a" opacity="0.623"/><circle cx="39.88" cy="108.78" r="0.82" fill="#d2a97a" opacity="0.381"/><circle cx="61.46" cy="150.52" r="2.04" fill="#d2a97a" opacity="0.665"/><circle cx="46.65" cy="106.35" r="1.84" fill="#d2a97a" opacity="0.344"/><circle cx="135.33" cy="92.98" r="1.70" fill="#d2a97a" opacity="0.750"/><circle cx="180.68" cy="101.98" r="1.71" fill="#d2a97a" opacity="0.581"/><circle cx="209.83" cy="146.74" r="1.42" fill="#d2a97a" opacity="0.641"/><circle cx="133.30" cy="158.24" r="1.16" fill="#b98b5f" opacity="0.673"/><circle cx="79.02" cy="94.90" r="1.52" fill="#b98b5f" opacity="0.388"/><circle cx="154.99" cy="99.57" r="0.57" fill="#d2a97a" opacity="0.399"/><circle cx="82.11" cy="152.27" r="1.89" fill="#d2a97a" opacity="0.440"/><circle cx="65.05" cy="150.95" r="1.39" fill="#d2a97a" opacity="0.463"/><circle cx="159.99" cy="91.98" r="1.64" fill="#d2a97a" opacity="0.746"/><circle cx="104.80" cy="98.08" r="1.12" fill="#d2a97a" opacity="0.599"/><circle cx="183.28" cy="104.29" r="0.82" fill="#d2a97a" opacity="0.502"/><circle cx="90.64" cy="100.65" r="1.26" fill="#d2a97a" opacity="0.757"/><circle cx="151.39" cy="166.27" r="1.97" fill="#b98b5f" opacity="0.706"/><circle cx="212.98" cy="149.40" r="1.88" fill="#b98b5f" opacity="0.632"/><circle cx="44.01" cy="132.00" r="0.57" fill="#d2a97a" opacity="0.503"/><circle cx="155.35" cy="160.10" r="1.31" fill="#d2a97a" opacity="0.259"/><circle cx="193.43" cy="144.11" r="1.67" fill="#d2a97a" opacity="0.691"/><circle cx="132.05" cy="91.19" r="1.07" fill="#d2a97a" opacity="0.549"/><circle cx="123.29" cy="166.09" r="1.96" fill="#b98b5f" opacity="0.810"/><circle cx="52.02" cy="101.05" r="0.57" fill="#d2a97a" opacity="0.277"/><circle cx="145.35" cy="159.57" r="1.53" fill="#d2a97a" opacity="0.262"/><circle cx="115.96" cy="166.55" r="0.71" fill="#d2a97a" opacity="0.256"/><circle cx="86.52" cy="96.69" r="0.88" fill="#d2a97a" opacity="0.672"/><circle cx="57.24" cy="140.97" r="1.95" fill="#b98b5f" opacity="0.792"/><circle cx="145.24" cy="93.36" r="2.04" fill="#b98b5f" opacity="0.780"/><circle cx="86.55" cy="92.11" r="1.56" fill="#b98b5f" opacity="0.825"/><circle cx="109.50" cy="94.65" r="1.43" fill="#b98b5f" opacity="0.374"/><circle cx="47.14" cy="129.49" r="0.99" fill="#d2a97a" opacity="0.528"/><circle cx="51.80" cy="140.71" r="0.97" fill="#b98b5f" opacity="0.606"/><circle cx="153.82" cy="165.02" r="1.60" fill="#b98b5f" opacity="0.702"/><circle cx="198.51" cy="99.14" r="1.81" fill="#b98b5f" opacity="0.312"/><circle cx="99.52" cy="156.04" r="0.82" fill="#d2a97a" opacity="0.257"/><circle cx="127.53" cy="94.25" r="1.45" fill="#b98b5f" opacity="0.484"/><circle cx="219.53" cy="110.89" r="1.51" fill="#d2a97a" opacity="0.803"/><circle cx="97.01" cy="160.81" r="0.85" fill="#b98b5f" opacity="0.296"/><circle cx="111.41" cy="99.00" r="1.51" fill="#d2a97a" opacity="0.288"/><circle cx="51.10" cy="141.29" r="1.67" fill="#b98b5f" opacity="0.293"/><circle cx="211.65" cy="108.68" r="1.99" fill="#b98b5f" opacity="0.250"/><circle cx="128.39" cy="91.45" r="1.35" fill="#b98b5f" opacity="0.735"/><circle cx="214.80" cy="125.47" r="1.08" fill="#b98b5f" opacity="0.690"/><circle cx="223.57" cy="122.25" r="1.90" fill="#b98b5f" opacity="0.285"/><circle cx="99.25" cy="161.84" r="1.96" fill="#d2a97a" opacity="0.651"/><circle cx="168.28" cy="93.37" r="1.21" fill="#d2a97a" opacity="0.324"/><circle cx="38.27" cy="122.11" r="1.96" fill="#d2a97a" opacity="0.295"/><circle cx="64.80" cy="108.73" r="0.78" fill="#b98b5f" opacity="0.318"/><circle cx="177.46" cy="151.74" r="0.72" fill="#d2a97a" opacity="0.351"/><circle cx="153.52" cy="96.69" r="0.72" fill="#b98b5f" opacity="0.588"/><circle cx="64.96" cy="109.62" r="1.71" fill="#d2a97a" opacity="0.318"/><circle cx="104.14" cy="99.25" r="1.36" fill="#b98b5f" opacity="0.298"/><circle cx="173.46" cy="152.66" r="1.38" fill="#d2a97a" opacity="0.473"/><circle cx="143.56" cy="157.31" r="1.67" fill="#d2a97a" opacity="0.781"/><circle cx="175.05" cy="102.21" r="1.16" fill="#d2a97a" opacity="0.564"/><circle cx="220.75" cy="131.58" r="1.30" fill="#b98b5f" opacity="0.427"/><circle cx="63.72" cy="106.04" r="1.67" fill="#b98b5f" opacity="0.285"/><circle cx="64.23" cy="104.02" r="1.83" fill="#d2a97a" opacity="0.429"/><circle cx="44.23" cy="141.45" r="1.34" fill="#b98b5f" opacity="0.339"/><circle cx="51.27" cy="142.76" r="1.23" fill="#d2a97a" opacity="0.584"/><circle cx="210.01" cy="151.78" r="0.63" fill="#d2a97a" opacity="0.386"/><circle cx="50.71" cy="148.73" r="1.34" fill="#b98b5f" opacity="0.485"/><circle cx="150.72" cy="161.34" r="0.91" fill="#b98b5f" opacity="0.739"/><circle cx="226.12" cy="131.83" r="1.77" fill="#d2a97a" opacity="0.725"/><circle cx="139.06" cy="89.13" r="1.72" fill="#b98b5f" opacity="0.568"/><circle cx="73.05" cy="104.44" r="1.27" fill="#d2a97a" opacity="0.294"/><circle cx="202.42" cy="154.25" r="1.45" fill="#d2a97a" opacity="0.346"/><circle cx="103.55" cy="99.99" r="1.53" fill="#d2a97a" opacity="0.744"/><circle cx="88.27" cy="156.20" r="1.69" fill="#d2a97a" opacity="0.342"/><circle cx="128.24" cy="163.97" r="0.63" fill="#d2a97a" opacity="0.255"/><circle cx="133.91" cy="92.61" r="1.14" fill="#d2a97a" opacity="0.484"/><circle cx="114.11" cy="96.85" r="0.99" fill="#d2a97a" opacity="0.765"/><circle cx="208.44" cy="142.30" r="0.97" fill="#d2a97a" opacity="0.684"/><circle cx="227.16" cy="127.60" r="1.55" fill="#b98b5f" opacity="0.443"/><circle cx="194.89" cy="112.70" r="0.84" fill="#d2a97a" opacity="0.384"/><circle cx="120.89" cy="96.07" r="1.45" fill="#b98b5f" opacity="0.610"/><circle cx="53.53" cy="145.06" r="1.60" fill="#d2a97a" opacity="0.283"/><circle cx="219.56" cy="129.51" r="0.87" fill="#b98b5f" opacity="0.609"/><circle cx="98.80" cy="157.16" r="0.89" fill="#d2a97a" opacity="0.506"/><circle cx="114.50" cy="158.04" r="1.53" fill="#b98b5f" opacity="0.329"/><circle cx="217.62" cy="109.46" r="2.09" fill="#d2a97a" opacity="0.760"/><circle cx="207.43" cy="114.12" r="1.32" fill="#b98b5f" opacity="0.504"/><circle cx="216.25" cy="139.36" r="0.56" fill="#b98b5f" opacity="0.650"/><circle cx="174.71" cy="100.70" r="1.93" fill="#b98b5f" opacity="0.815"/><circle cx="141.76" cy="93.38" r="0.99" fill="#d2a97a" opacity="0.631"/><circle cx="211.74" cy="123.27" r="1.86" fill="#b98b5f" opacity="0.846"/><circle cx="30.19" cy="140.69" r="1.65" fill="#b98b5f" opacity="0.629"/><circle cx="209.53" cy="111.50" r="1.01" fill="#b98b5f" opacity="0.697"/><circle cx="215.15" cy="149.07" r="1.58" fill="#b98b5f" opacity="0.580"/><circle cx="103.90" cy="161.73" r="1.25" fill="#d2a97a" opacity="0.593"/><circle cx="188.11" cy="152.58" r="1.80" fill="#d2a97a" opacity="0.623"/><circle cx="69.87" cy="100.15" r="0.73" fill="#d2a97a" opacity="0.250"/><circle cx="62.55" cy="102.00" r="1.46" fill="#b98b5f" opacity="0.725"/><circle cx="44.18" cy="124.27" r="0.85" fill="#b98b5f" opacity="0.713"/><circle cx="123.07" cy="97.47" r="0.55" fill="#b98b5f" opacity="0.288"/><circle cx="193.30" cy="110.24" r="1.42" fill="#d2a97a" opacity="0.394"/><circle cx="114.13" cy="92.19" r="2.04" fill="#d2a97a" opacity="0.735"/><circle cx="41.98" cy="130.20" r="1.56" fill="#b98b5f" opacity="0.834"/><circle cx="49.73" cy="111.91" r="1.45" fill="#b98b5f" opacity="0.638"/><circle cx="183.29" cy="153.90" r="0.90" fill="#b98b5f" opacity="0.620"/><circle cx="51.36" cy="119.81" r="1.46" fill="#b98b5f" opacity="0.585"/><circle cx="68.87" cy="153.74" r="0.74" fill="#d2a97a" opacity="0.465"/><circle cx="210.61" cy="119.24" r="1.92" fill="#b98b5f" opacity="0.275"/><circle cx="182.77" cy="160.29" r="1.41" fill="#d2a97a" opacity="0.440"/><circle cx="200.68" cy="115.76" r="0.53" fill="#d2a97a" opacity="0.506"/><circle cx="105.20" cy="99.56" r="0.96" fill="#d2a97a" opacity="0.457"/><circle cx="167.40" cy="160.36" r="1.38" fill="#d2a97a" opacity="0.493"/>
</svg>