<?xml version="1.0" encoding="UTF-8"?>
<svg xmlns="http://www.w3.org/2000/svg" width="256" height="256" viewBox="0 0 256 256">
  <defs>
    <radialGradient id="base" cx="35%" cy="30%" r="70%">
      <stop offset="0%" stop-color="#c1b299"/>
      <stop offset="55%" stop-color="#a08a6d"/>
      <stop offset="100%" stop-color="#64523a"/>
    </radialGradient>
    <radialGradient id="glow" cx="50%" cy="50%" r="70%">
      <stop offset="0%" stop-color="rgba(255,255,255,0.15)"/>
      <stop offset="100%" stop-color="rgba(255,255,255,0)"/>
    </radialGradient>
    <mask id="planetMask">
      <rect width="256" height="256" fill="black"/>
      <circle cx="128" cy="128" r="102.4" fill="white"/>
    </mask>
  </defs>
  <circle cx="128" cy="128" r="102.4" fill="url(#base)"/>
  <g mask="url(#planetMask)"><rect x="0" y="0" width="256" height="256" fill="#2a5a6a" opacity="0.24"/><ellipse cx="193.77" cy="166.35" rx="24.46" ry="19.50" transform="rotate(33.33 193.77 166.35)" fill="#c1b299" opacity="0.82"/><ellipse cx="162.51" cy="136.84" rx="28.52" ry="26.99" transform="rotate(162.03 162.51 136.84)" fill="#a08a6d" opacity="0.82"/><ellipse cx="74.17" cy="97.92" rx="29.99" ry="26.90" transform="rotate(122.14 74.17 97.92)" fill="#c1b299" opacity="0.82"/><ellipse cx="124.79" cy="156.91" rx="23.45" ry="18.85" transform="rotate(92.39 124.79 156.91)" fill="#a08a6d" opacity="0.82"/><ellipse cx="170.85" cy="160.45" rx="17.49" ry="8.59" transform="rotate(97.37 170.85 160.45)" fill="#c1b299" opacity="0.82"/><ellipse cx="66.12" cy="136.41" rx="23.99" ry="22.90" transform="rotate(94.11 66.12 136.41)" fill="#a08a6d" opacity="0.82"/><ellipse cx="84.05" cy="142.26" rx="35.59" ry="28.19" transform="rotate(170.26 84.05 142.26)" fill="#c1b299" opacity="0.82"/><ellipse cx="77.22" cy="157.70" rx="27.04" ry="24.22" transform="rotate(50.20 77.22 157.70)" fill="#a08a6d" opacity="0.82"/><ellipse cx="111.17" cy="125.11" rx="34.42" ry="16.16" transform="rotate(112.87 111.17 125.11)" fill="#c1b299" opacity="0.82"/><ellipse cx="138.28" cy="143.70" rx="21.86" ry="19.85" transform="rotate(154.86 138.28 143.70)" fill="#a08a6d" opacity="0.82"/></g>
  <circle cx="128" cy="128" r="102.4" fill="url(#glow)"/>
  <circle cx="128" cy="128" r="102.4" fill="none" stroke="rgba(255,255,255,0.14)" stroke-width="1"/>
</svg>