<?xml version="1.0" encoding="UTF-8"?>
<svg xmlns="http://www.w3.org/2000/svg" width="256" height="256" viewBox="0 0 256 256">
  <defs>
    <radialGradient id="base" cx="35%" cy="30%" r="70%">
      <stop offset="0%" stop-color="#5199c0"/>
      <stop offset="55%" stop-color="#2e648c"/>
      <stop offset="100%" stop-color="#1c3957"/>
    </radialGradient>
    <radialGradient id="glow" cx="50%" cy="50%" r="70%">
      <stop offset="0%" stop-color="rgba(255,255,255,0.15)"/>
      <stop offset="100%" stop-color="rgba(255,255,255,0)"/>
    </radialGradient>
    <mask id="planetMask">
      <rect width="256" height="256" fill="black"/>
      <circle cx="128" cy="128" r="102.4" fill="white"/>
    </mask>
  </defs>
  <circle cx="128" cy="128" r="102.4" fill="url(#base)"/>
  <g mask="url(#planetMask)"><rect x="0" y="0" width="256" height="256" fill="#1a3a6a" opacity="0.7"/><ellipse cx="122.89" cy="123.32" rx="34.10" ry="19.58" transform="rotate(92.31 122.89 123.32)" fill="#d6b78e" opacity="0.82"/><ellipse cx="92.32" cy="172.11" rx="30.94" ry="29.92" transform="rotate(4.66 92.32 172.11)" fill="#987855" opacity="0.82"/><ellipse cx="146.60" cy="116.25" rx="34.99" ry="23.38" transform="rotate(94.32 146.60 116.25)" fill="#d6b78e" opacity="0.82"/><ellipse cx="160.91" cy="121.96" rx="31.07" ry="24.94" transform="rotate(148.59 160.91 121.96)" fill="#987855" opacity="0.82"/><ellipse cx="128" cy="48.13" rx="55.35" ry="25.60" fill="#e8f0ff" opacity="0.6311111111111111"/><ellipse cx="128" cy="207.87" rx="52.17" ry="25.60" fill="#e8f0ff" opacity="0.5688888888888889"/></g>
  <circle cx="128" cy="128" r="102.4" fill="url(#glow)"/>
  <circle cx="128" cy="128" r="102.4" fill="none" stroke="rgba(255,255,255,0.14)" stroke-width="1"/>
</svg>