<?xml version="1.0" encoding="UTF-8"?>
<svg xmlns="http://www.w3.org/2000/svg" width="256" height="256" viewBox="0 0 256 256">
  <defs>
    <radialGradient id="base" cx="35%" cy="30%" r="70%">
      <stop offset="0%" stop-color="#e3c296"/>
      <stop offset="55%" stop-color="#a17f5a"/>
      <stop offset="100%" stop-color="#56402c"/>
    </radialGradient>
    <radialGradient id="glow" cx="50%" cy="50%" r="70%">
      <stop offset="0%" stop-color="rgba(255,255,255,0.15)"/>
      <stop offset="100%" stop-color="rgba(255,255,255,0)"/>
    </radialGradient>
    <mask id="planetMask">
      <rect width="256" height="256" fill="black"/>
      <circle cx="128" cy="128" r="102.4" fill="white"/>
    </mask>
  </defs>
  <circle cx="128" cy="128" r="102.4" fill="url(#base)"/>
  <g mask="url(#planetMask)"><ellipse cx="124.34" cy="115.30" rx="35.07" ry="17.87" transform="rotate(31.45 124.34 115.30)" fill="#e3c296" opacity="0.82"/><ellipse cx="99.51" cy="179.12" rx="17.24" ry="10.34" transform="rotate(10.20 99.51 179.12)" fill="#a17f5a" opacity="0.82"/><ellipse cx="196.46" cy="171.35" rx="27.59" ry="27.96" transform="rotate(134.35 196.46 171.35)" fill="#e3c296" opacity="0.82"/><ellipse cx="140.10" cy="73.90" rx="22.30" ry="21.94" transform="rotate(53.30 140.10 73.90)" fill="#a17f5a" opacity="0.82"/><ellipse cx="116.38" cy="86.34" rx="32.32" ry="15.91" transform="rotate(141.89 116.38 86.34)" fill="#e3c296" opacity="0.82"/><ellipse cx="188.07" cy="125.68" rx="20.00" ry="16.73" transform="rotate(88.71 188.07 125.68)" fill="#a17f5a" opacity="0.82"/><ellipse cx="67.18" cy="129.12" rx="31.48" ry="15.08" transform="rotate(106.52 67.18 129.12)" fill="#e3c296" opacity="0.82"/><ellipse cx="168.75" cy="131.37" rx="15.91" ry="12.50" transform="rotate(38.71 168.75 131.37)" fill="#a17f5a" opacity="0.82"/><ellipse cx="169.66" cy="142.76" rx="21.16" ry="11.35" transform="rotate(122.70 169.66 142.76)" fill="#e3c296" opacity="0.82"/><ellipse cx="107.77" cy="152.40" rx="17.60" ry="13.14" transform="rotate(22.38 107.77 152.40)" fill="#a17f5a" opacity="0.82"/><ellipse cx="131.47" cy="152.21" rx="19.70" ry="18.32" transform="rotate(15.55 131.47 152.21)" fill="#e3c296" opacity="0.82"/><ellipse cx="99.42" cy="178.86" rx="20.53" ry="14.99" transform="rotate(111.29 99.42 178.86)" fill="#a17f5a" opacity="0.82"/><ellipse cx="198.86" cy="92.49" rx="23.55" ry="12.66" fill="#e0d0a0" opacity="0.4275"/><ellipse cx="63.31" cy="131.76" rx="17.41" ry="6.40" fill="#e0d0a0" opacity="0.4275"/><ellipse cx="171.08" cy="151.45" rx="21.42" ry="8.37" fill="#e0d0a0" opacity="0.4275"/><ellipse cx="84.58" cy="140.88" rx="21.98" ry="8.45" fill="#e0d0a0" opacity="0.4275"/><ellipse cx="185.89" cy="74.44" rx="23.93" ry="6.95" fill="#e0d0a0" opacity="0.4275"/><ellipse cx="168.14" cy="115.77" rx="14.88" ry="3.06" fill="#e0d0a0" opacity="0.4275"/><ellipse cx="85.44" cy="90.04" rx="23.08" ry="12.05" fill="#e0d0a0" opacity="0.4275"/><ellipse cx="181.36" cy="77.14" rx="29.42" ry="15.70" fill="#e0d0a0" opacity="0.4275"/><ellipse cx="55.20" cy="77.16" rx="14.95" ry="3.41" fill="#e0d0a0" opacity="0.4275"/><ellipse cx="67.52" cy="170.85" rx="24.40" ry="6.04" fill="#e0d0a0" opacity="0.4275"/></g>
  <circle cx="128" cy="128" r="102.4" fill="url(#glow)"/>
  <circle cx="128" cy="128" r="102.4" fill="none" stroke="rgba(255,255,255,0.14)" stroke-width="1"/>
</svg>