<?xml version="1.0" encoding="UTF-8"?>
<svg xmlns="http://www.w3.org/2000/svg" width="256" height="256" viewBox="0 0 256 256">
  <defs>
    <radialGradient id="base" cx="35%" cy="30%" r="70%">
      <stop offset="0%" stop-color="#88827c"/>
      <stop offset="55%" stop-color="#655f59"/>
      <stop offset="100%" stop-color="#37332f"/>
    </radialGradient>
    <radialGradient id="glow" cx="50%" cy="50%" r="70%">
      <stop offset="0%" stop-color="rgba(255,255,255,0.15)"/>
      <stop offset="100%" stop-color="rgba(255,255,255,0)"/>
    </radialGradient>
    <mask id="planetMask">
      <rect width="256" height="256" fill="black"/>
      <circle cx="128" cy="128" r="102.4" fill="white"/>
    </mask>
  </defs>
  <circle cx="128" cy="128" r="102.4" fill="url(#base)"/>
  <g mask="url(#planetMask)"><circle cx="90.47" cy="125.23" r="5.54" fill="rgba(0,0,0,0.18)"/><circle cx="88.92" cy="123.90" r="3.99" fill="rgba(255,255,255,0.08)"/><circle cx="191.92" cy="84.73" r="4.20" fill="rgba(0,0,0,0.18)"/><circle cx="190.74" cy="83.72" r="3.03" fill="rgba(255,255,255,0.08)"/><circle cx="59.44" cy="79.36" r="5.84" fill="rgba(0,0,0,0.18)"/><circle cx="57.81" cy="77.96" r="4.21" fill="rgba(255,255,255,0.08)"/><circle cx="123.08" cy="161.98" r="3.21" fill="rgba(0,0,0,0.18)"/><circle cx="122.18" cy="161.20" r="2.31" fill="rgba(255,255,255,0.08)"/><circle cx="164.37" cy="68.19" r="11.19" fill="rgba(0,0,0,0.18)"/><circle cx="161.24" cy="65.50" r="8.05" fill="rgba(255,255,255,0.08)"/><circle cx="100.62" cy="85.98" r="7.56" fill="rgba(0,0,0,0.18)"/><circle cx="98.50" cy="84.16" r="5.45" fill="rgba(255,255,255,0.08)"/><circle cx="66.57" cy="112.59" r="5.01" fill="rgba(0,0,0,0.18)"/><circle cx="65.17" cy="111.39" r="3.60" fill="rgba(255,255,255,0.08)"/><circle cx="110.43" cy="191.84" r="8.40" fill="rgba(0,0,0,0.18)"/><circle cx="108.08" cy="189.83" r="6.05" fill="rgba(255,255,255,0.08)"/><circle cx="147.14" cy="105.59" r="6.40" fill="rgba(0,0,0,0.18)"/><circle cx="145.35" cy="104.06" r="4.61" fill="rgba(255,255,255,0.08)"/><circle cx="100.65" cy="64.44" r="3.25" fill="rgba(0,0,0,0.18)"/><circle cx="99.74" cy="63.66" r="2.34" fill="rgba(255,255,255,0.08)"/></g>
  <circle cx="128" cy="128" r="102.4" fill="url(#glow)"/>
  <circle cx="128" cy="128" r="102.4" fill="none" stroke="rgba(255,255,255,0.14)" stroke-width="1"/>
</svg>