<?xml version="1.0" encoding="UTF-8"?>
<svg xmlns="http://www.w3.org/2000/svg" width="256" height="256" viewBox="0 0 256 256">
  <defs>
    <radialGradient id="base" cx="35%" cy="30%" r="70%">
      <stop offset="0%" stop-color="#65696f"/>
      <stop offset="55%" stop-color="#464c52"/>
      <stop offset="100%" stop-color="#292d35"/>
    </radialGradient>
    <radialGradient id="glow" cx="50%" cy="50%" r="70%">
      <stop offset="0%" stop-color="rgba(255,255,255,0.15)"/>
      <stop offset="100%" stop-color="rgba(255,255,255,0)"/>
    </radialGradient>
    <mask id="planetMask">
      <rect width="256" height="256" fill="black"/>
      <circle cx="128" cy="128" r="102.4" fill="white"/>
    </mask>
  </defs>
  <circle cx="128" cy="128" r="102.4" fill="url(#base)"/>
  <g mask="url(#planetMask)"><circle cx="64.20" cy="61.03" r="9.59" fill="rgba(0,0,0,0.18)"/><circle cx="61.51" cy="58.73" r="6.90" fill="rgba(255,255,255,0.08)"/><circle cx="194.20" cy="189.49" r="8.13" fill="rgba(0,0,0,0.18)"/><circle cx="191.92" cy="187.54" r="5.86" fill="rgba(255,255,255,0.08)"/><circle cx="70.11" cy="74.24" r="5.84" fill="rgba(0,0,0,0.18)"/><circle cx="68.48" cy="72.84" r="4.20" fill="rgba(255,255,255,0.08)"/><circle cx="72.87" cy="95.52" r="11.18" fill="rgba(0,0,0,0.18)"/><circle cx="69.74" cy="92.84" r="8.05" fill="rgba(255,255,255,0.08)"/><circle cx="186.32" cy="106.31" r="6.24" fill="rgba(0,0,0,0.18)"/><circle cx="184.57" cy="104.81" r="4.49" fill="rgba(255,255,255,0.08)"/><circle cx="71.74" cy="161.74" r="3.78" fill="rgba(0,0,0,0.18)"/><circle cx="70.68" cy="160.83" r="2.72" fill="rgba(255,255,255,0.08)"/><circle cx="188.04" cy="88.38" r="7.42" fill="rgba(0,0,0,0.18)"/><circle cx="185.96" cy="86.60" r="5.34" fill="rgba(255,255,255,0.08)"/><rect x="0" y="0" width="256" height="256" fill="#e8f0ff" opacity="0.09000000000000001"/></g>
  <circle cx="128" cy="128" r="102.4" fill="url(#glow)"/>
  <circle cx="128" cy="128" r="102.4" fill="none" stroke="rgba(255,255,255,0.14)" stroke-width="1"/>
</svg>